<?xml version="1.0" encoding="utf-8"?>
<!-- Generator: Adobe Illustrator 23.0.3, SVG Export Plug-In . SVG Version: 6.00 Build 0)  -->
<svg version="1.1" id="Layer_1" xmlns="http://www.w3.org/2000/svg" xmlns:xlink="http://www.w3.org/1999/xlink" x="0px" y="0px"
	 viewBox="0 0 496 312" style="enable-background:new 0 0 496 312;" xml:space="preserve">
<style type="text/css">
	.st0{clip-path:url(#SVGID_2_);}
	.st1{fill:#003057;}
	.st2{clip-path:url(#SVGID_4_);}
	.st3{fill:none;}
	.st4{fill:#005FC5;}
	.st5{fill:#0098C5;}
	.st6{fill:url(#Path_4333_1_);}
	.st7{fill:url(#Path_3450_1_);}
	.st8{opacity:0.497;fill:#444444;enable-background:new    ;}
	.st9{fill:#E87200;}
	.st10{fill:#016FD0;}
	.st11{fill:#FFFFFF;}
</style>
<g>
	<defs>
		<rect id="SVGID_1_" width="496" height="312"/>
	</defs>
	<clipPath id="SVGID_2_">
		<use xlink:href="#SVGID_1_"  style="overflow:visible;"/>
	</clipPath>
	<g id="MORE_REWARDS_AE_" class="st0">
		<path id="Path_3586-2" class="st1" d="M15,0h466c8.3,0,15,6.7,15,15v282c0,8.3-6.7,15-15,15l0,0H15c-8.3,0-15-6.7-15-15l0,0V15
			C0,6.7,6.7,0,15,0z"/>
		<g>
			<defs>
				<path id="SVGID_3_" d="M15,0h466c8.3,0,15,6.7,15,15v282c0,8.3-6.7,15-15,15l0,0H15c-8.3,0-15-6.7-15-15l0,0V15
					C0,6.7,6.7,0,15,0z"/>
			</defs>
			<clipPath id="SVGID_4_">
				<use xlink:href="#SVGID_3_"  style="overflow:visible;"/>
			</clipPath>
			<g id="Mask_Group_37" class="st2">
				<g id="Group_15697" transform="translate(-50.991 -47.7)">
					<g id="Group_15694" transform="translate(-0.087 -0.119)">
						<rect id="Rectangle_8699" x="532.8" y="-9" class="st3" width="13.7" height="12.8"/>
						<rect id="Rectangle_8700" x="532.8" y="3.8" class="st3" width="13.7" height="12.8"/>
						<rect id="Rectangle_8701" x="532.8" y="16.6" class="st3" width="13.7" height="12.8"/>
						<rect id="Rectangle_8702" x="532.8" y="29.4" class="st3" width="13.7" height="12.8"/>
						<rect id="Rectangle_8703" x="532.8" y="42.3" class="st3" width="13.7" height="12.8"/>
						<rect id="Rectangle_8704" x="532.8" y="55.1" class="st3" width="13.7" height="12.8"/>
						<rect id="Rectangle_8705" x="532.8" y="67.9" class="st3" width="13.7" height="12.8"/>
						<rect id="Rectangle_8706" x="532.8" y="80.7" class="st3" width="13.7" height="12.8"/>
						<rect id="Rectangle_8707" x="532.8" y="93.5" class="st3" width="13.7" height="12.8"/>
						<g id="Group_15647" transform="translate(532.761 115.319)">
							<rect id="Rectangle_8708" x="0" y="-9" class="st3" width="13.7" height="12.8"/>
							<rect id="Rectangle_8709" x="1.3" y="-8.1" class="st4" width="11.1" height="11.1"/>
						</g>
						<g id="Group_15648" transform="translate(532.761 128.133)">
							<rect id="Rectangle_8710" x="0" y="-9" class="st3" width="13.7" height="12.8"/>
							<rect id="Rectangle_8711" x="1.3" y="-8.1" class="st4" width="11.1" height="11.1"/>
						</g>
						<g id="Group_15649" transform="translate(532.761 140.946)">
							<rect id="Rectangle_8712" x="0" y="-9" class="st3" width="13.7" height="12.8"/>
							<rect id="Rectangle_8713" x="1.3" y="-8.1" class="st4" width="11.1" height="11.1"/>
						</g>
						<rect id="Rectangle_8714" x="532.8" y="144.8" class="st3" width="13.7" height="12.8"/>
						<rect id="Rectangle_8715" x="532.8" y="157.6" class="st3" width="13.7" height="12.8"/>
						<g id="Group_15650" transform="translate(534.099 180.267)">
							<rect id="Rectangle_8716" x="0" y="-9" class="st4" width="11.1" height="11.1"/>
						</g>
						<rect id="Rectangle_8717" x="519" y="-9" class="st3" width="13.7" height="12.8"/>
						<rect id="Rectangle_8718" x="519" y="3.8" class="st3" width="13.7" height="12.8"/>
						<rect id="Rectangle_8719" x="519" y="16.6" class="st3" width="13.7" height="12.8"/>
						<rect id="Rectangle_8720" x="519" y="29.4" class="st3" width="13.7" height="12.8"/>
						<g id="Group_15651" transform="translate(519.032 51.253)">
							<rect id="Rectangle_8721" x="0" y="-9" class="st3" width="13.7" height="12.8"/>
							<rect id="Rectangle_8722" x="1.3" y="-8.1" class="st5" width="11.1" height="11.1"/>
						</g>
						<g id="Group_15652" transform="translate(519.032 64.066)">
							<rect id="Rectangle_8723" x="0" y="-9" class="st3" width="13.7" height="12.8"/>
							<rect id="Rectangle_8724" x="1.3" y="-8.1" class="st4" width="11.1" height="11.1"/>
						</g>
						<rect id="Rectangle_8725" x="519" y="67.9" class="st3" width="13.7" height="12.8"/>
						<rect id="Rectangle_8726" x="519" y="119.1" class="st3" width="13.7" height="12.8"/>
						<rect id="Rectangle_8727" x="519" y="131.9" class="st3" width="13.7" height="12.8"/>
						<rect id="Rectangle_8728" x="519" y="144.8" class="st3" width="13.7" height="12.8"/>
						<rect id="Rectangle_8729" x="505.3" y="-9" class="st3" width="13.7" height="12.8"/>
						<rect id="Rectangle_8730" x="505.3" y="3.8" class="st3" width="13.7" height="12.8"/>
						<rect id="Rectangle_8731" x="505.3" y="16.6" class="st3" width="13.7" height="12.8"/>
						<rect id="Rectangle_8732" x="505.3" y="29.4" class="st3" width="13.7" height="12.8"/>
						<rect id="Rectangle_8733" x="505.3" y="42.3" class="st3" width="13.7" height="12.8"/>
						<rect id="Rectangle_8734" x="505.3" y="55.1" class="st3" width="13.7" height="12.8"/>
						<rect id="Rectangle_8735" x="505.3" y="67.9" class="st3" width="13.7" height="12.8"/>
						<rect id="Rectangle_8736" x="505.3" y="80.7" class="st3" width="13.7" height="12.8"/>
						<rect id="Rectangle_8737" x="505.3" y="93.5" class="st3" width="13.7" height="12.8"/>
						<rect id="Rectangle_8738" x="505.3" y="106.3" class="st3" width="13.7" height="12.8"/>
						<rect id="Rectangle_8739" x="505.3" y="119.1" class="st3" width="13.7" height="12.8"/>
						<rect id="Rectangle_8740" x="505.3" y="131.9" class="st3" width="13.7" height="12.8"/>
						<rect id="Rectangle_8741" x="491.6" y="-9" class="st3" width="13.7" height="12.8"/>
						<rect id="Rectangle_8742" x="491.6" y="3.8" class="st3" width="13.7" height="12.8"/>
						<rect id="Rectangle_8743" x="491.6" y="16.6" class="st3" width="13.7" height="12.8"/>
						<rect id="Rectangle_8744" x="491.6" y="29.4" class="st3" width="13.7" height="12.8"/>
						<rect id="Rectangle_8745" x="491.6" y="42.3" class="st3" width="13.7" height="12.8"/>
						<rect id="Rectangle_8746" x="491.6" y="55.1" class="st3" width="13.7" height="12.8"/>
						<rect id="Rectangle_8747" x="491.6" y="67.9" class="st3" width="13.7" height="12.8"/>
						<rect id="Rectangle_8748" x="491.6" y="80.7" class="st3" width="13.7" height="12.8"/>
						<rect id="Rectangle_8749" x="491.6" y="93.5" class="st3" width="13.7" height="12.8"/>
						<rect id="Rectangle_8750" x="491.6" y="106.3" class="st3" width="13.7" height="12.8"/>
						<rect id="Rectangle_8751" x="491.6" y="119.1" class="st3" width="13.7" height="12.8"/>
						<rect id="Rectangle_8752" x="491.6" y="131.9" class="st3" width="13.7" height="12.8"/>
						<g id="Group_15653" transform="translate(491.575 153.759)">
							<rect id="Rectangle_8753" x="0" y="-9" class="st3" width="13.7" height="12.8"/>
							<rect id="Rectangle_8754" x="1.3" y="-8.1" class="st5" width="11.1" height="11.1"/>
						</g>
						<rect id="Rectangle_8755" x="477.8" y="-9" class="st3" width="13.7" height="12.8"/>
						<rect id="Rectangle_8756" x="477.8" y="3.8" class="st3" width="13.7" height="12.8"/>
						<rect id="Rectangle_8757" x="477.8" y="16.6" class="st3" width="13.7" height="12.8"/>
						<rect id="Rectangle_8758" x="477.8" y="29.4" class="st3" width="13.7" height="12.8"/>
						<g id="Group_15654" transform="translate(477.847 51.253)">
							<rect id="Rectangle_8759" x="0" y="-9" class="st3" width="13.7" height="12.8"/>
							<rect id="Rectangle_8760" x="1.3" y="-8.1" class="st4" width="11.1" height="11.1"/>
						</g>
						<rect id="Rectangle_8761" x="477.8" y="55.1" class="st3" width="13.7" height="12.8"/>
						<rect id="Rectangle_8762" x="477.8" y="67.9" class="st3" width="13.7" height="12.8"/>
						<rect id="Rectangle_8763" x="477.8" y="93.5" class="st3" width="13.7" height="12.8"/>
						<rect id="Rectangle_8764" x="477.8" y="106.3" class="st3" width="13.7" height="12.8"/>
						<rect id="Rectangle_8765" x="477.8" y="119.1" class="st3" width="13.7" height="12.8"/>
						<rect id="Rectangle_8766" x="477.8" y="131.9" class="st3" width="13.7" height="12.8"/>
						<rect id="Rectangle_8767" x="477.8" y="144.8" class="st3" width="13.7" height="12.8"/>
						<rect id="Rectangle_8768" x="477.8" y="157.6" class="st3" width="13.7" height="12.8"/>
						<g id="Group_15655" transform="translate(479.185 180.267)">
							<rect id="Rectangle_8769" x="0" y="-9" class="st5" width="11.1" height="11.1"/>
						</g>
						<rect id="Rectangle_8770" x="464.1" y="-9" class="st3" width="13.7" height="12.8"/>
						<rect id="Rectangle_8771" x="464.1" y="3.8" class="st3" width="13.7" height="12.8"/>
						<rect id="Rectangle_8772" x="464.1" y="16.6" class="st3" width="13.7" height="12.8"/>
						<rect id="Rectangle_8773" x="464.1" y="29.4" class="st3" width="13.7" height="12.8"/>
						<rect id="Rectangle_8774" x="464.1" y="42.3" class="st3" width="13.7" height="12.8"/>
						<rect id="Rectangle_8775" x="464.1" y="55.1" class="st3" width="13.7" height="12.8"/>
						<rect id="Rectangle_8776" x="464.1" y="67.9" class="st3" width="13.7" height="12.8"/>
						<rect id="Rectangle_8777" x="464.1" y="80.7" class="st3" width="13.7" height="12.8"/>
						<rect id="Rectangle_8778" x="464.1" y="93.5" class="st3" width="13.7" height="12.8"/>
						<rect id="Rectangle_8779" x="464.1" y="106.3" class="st3" width="13.7" height="12.8"/>
						<g id="Group_15656" transform="translate(464.118 128.133)">
							<rect id="Rectangle_8780" x="0" y="-9" class="st3" width="13.7" height="12.8"/>
							<rect id="Rectangle_8781" x="1.3" y="-8.1" class="st4" width="11.1" height="11.1"/>
						</g>
						<rect id="Rectangle_8782" x="464.1" y="131.9" class="st3" width="13.7" height="12.8"/>
						<rect id="Rectangle_8783" x="464.1" y="144.8" class="st3" width="13.7" height="12.8"/>
						<rect id="Rectangle_8784" x="464.1" y="157.6" class="st3" width="13.7" height="12.8"/>
						<rect id="Rectangle_8785" x="464.1" y="170.4" class="st3" width="13.7" height="12.8"/>
						<rect id="Rectangle_8786" x="450.4" y="-9" class="st3" width="13.7" height="12.8"/>
						<rect id="Rectangle_8787" x="450.4" y="3.8" class="st3" width="13.7" height="12.8"/>
						<rect id="Rectangle_8788" x="450.4" y="16.6" class="st3" width="13.7" height="12.8"/>
						<rect id="Rectangle_8789" x="450.4" y="29.4" class="st3" width="13.7" height="12.8"/>
						<rect id="Rectangle_8790" x="450.4" y="42.3" class="st3" width="13.7" height="12.8"/>
						<rect id="Rectangle_8791" x="450.4" y="67.9" class="st3" width="13.7" height="12.8"/>
						<rect id="Rectangle_8792" x="450.4" y="80.7" class="st3" width="13.7" height="12.8"/>
						<rect id="Rectangle_8793" x="450.4" y="93.5" class="st3" width="13.7" height="12.8"/>
						<rect id="Rectangle_8794" x="436.7" y="-9" class="st3" width="13.7" height="12.8"/>
						<rect id="Rectangle_8795" x="436.7" y="3.8" class="st3" width="13.7" height="12.8"/>
						<rect id="Rectangle_8796" x="436.7" y="16.6" class="st3" width="13.7" height="12.8"/>
						<g id="Group_15657" transform="translate(436.661 38.44)">
							<rect id="Rectangle_8797" x="0" y="-9" class="st3" width="13.7" height="12.8"/>
							<rect id="Rectangle_8798" x="1.3" y="-8.1" class="st4" width="11.1" height="11.1"/>
						</g>
						<rect id="Rectangle_8799" x="436.7" y="42.3" class="st3" width="13.7" height="12.8"/>
						<rect id="Rectangle_8800" x="436.7" y="67.9" class="st3" width="13.7" height="12.8"/>
						<rect id="Rectangle_8801" x="436.7" y="80.7" class="st3" width="13.7" height="12.8"/>
						<rect id="Rectangle_8802" x="436.7" y="93.5" class="st3" width="13.7" height="12.8"/>
						<rect id="Rectangle_8803" x="422.9" y="-9" class="st3" width="13.7" height="12.8"/>
						<rect id="Rectangle_8804" x="422.9" y="3.8" class="st3" width="13.7" height="12.8"/>
						<rect id="Rectangle_8805" x="422.9" y="16.6" class="st3" width="13.7" height="12.8"/>
						<rect id="Rectangle_8806" x="422.9" y="29.4" class="st3" width="13.7" height="12.8"/>
						<rect id="Rectangle_8807" x="422.9" y="42.3" class="st3" width="13.7" height="12.8"/>
						<rect id="Rectangle_8808" x="422.9" y="55.1" class="st3" width="13.7" height="12.8"/>
						<rect id="Rectangle_8809" x="422.9" y="67.9" class="st3" width="13.7" height="12.8"/>
						<rect id="Rectangle_8810" x="422.9" y="80.7" class="st3" width="13.7" height="12.8"/>
						<rect id="Rectangle_8811" x="422.9" y="93.5" class="st3" width="13.7" height="12.8"/>
						<rect id="Rectangle_8812" x="422.9" y="106.3" class="st3" width="13.7" height="12.8"/>
						<rect id="Rectangle_8813" x="409.2" y="-9" class="st3" width="13.7" height="12.8"/>
						<rect id="Rectangle_8814" x="409.2" y="3.8" class="st3" width="13.7" height="12.8"/>
						<rect id="Rectangle_8815" x="409.2" y="16.6" class="st3" width="13.7" height="12.8"/>
						<rect id="Rectangle_8816" x="409.2" y="29.4" class="st3" width="13.7" height="12.8"/>
						<rect id="Rectangle_8817" x="409.2" y="42.3" class="st3" width="13.7" height="12.8"/>
						<rect id="Rectangle_8818" x="409.2" y="55.1" class="st3" width="13.7" height="12.8"/>
						<g id="Group_15658" transform="translate(409.204 76.88)">
							<rect id="Rectangle_8819" x="0" y="-9" class="st3" width="13.7" height="12.8"/>
							<rect id="Rectangle_8820" x="1.3" y="-8.1" class="st5" width="11.1" height="11.1"/>
						</g>
						<rect id="Rectangle_8821" x="409.2" y="80.7" class="st3" width="13.7" height="12.8"/>
						<g id="Group_15659" transform="translate(409.204 102.506)">
							<rect id="Rectangle_8822" x="0" y="-9" class="st3" width="13.7" height="12.8"/>
							<rect id="Rectangle_8823" x="1.3" y="-8.1" class="st5" width="11.1" height="11.1"/>
						</g>
						<rect id="Rectangle_8824" x="409.2" y="106.3" class="st3" width="13.7" height="12.8"/>
						<rect id="Rectangle_8825" x="409.2" y="119.1" class="st3" width="13.7" height="12.8"/>
						<rect id="Rectangle_8826" x="409.2" y="131.9" class="st3" width="13.7" height="12.8"/>
						<rect id="Rectangle_8827" x="409.2" y="144.8" class="st3" width="13.7" height="12.8"/>
						<rect id="Rectangle_8828" x="395.5" y="-9" class="st3" width="13.7" height="12.8"/>
						<rect id="Rectangle_8829" x="395.5" y="3.8" class="st3" width="13.7" height="12.8"/>
						<rect id="Rectangle_8830" x="395.5" y="16.6" class="st3" width="13.7" height="12.8"/>
						<rect id="Rectangle_8831" x="395.5" y="29.4" class="st3" width="13.7" height="12.8"/>
						<rect id="Rectangle_8832" x="395.5" y="42.3" class="st3" width="13.7" height="12.8"/>
						<rect id="Rectangle_8833" x="395.5" y="55.1" class="st3" width="13.7" height="12.8"/>
						<rect id="Rectangle_8834" x="395.5" y="67.9" class="st3" width="13.7" height="12.8"/>
						<rect id="Rectangle_8835" x="395.5" y="80.7" class="st3" width="13.7" height="12.8"/>
						<rect id="Rectangle_8836" x="381.7" y="-9" class="st3" width="13.7" height="12.8"/>
						<rect id="Rectangle_8837" x="381.7" y="3.8" class="st3" width="13.7" height="12.8"/>
						<rect id="Rectangle_8838" x="381.7" y="16.6" class="st3" width="13.7" height="12.8"/>
						<rect id="Rectangle_8839" x="381.7" y="29.4" class="st3" width="13.7" height="12.8"/>
						<rect id="Rectangle_8840" x="381.7" y="42.3" class="st3" width="13.7" height="12.8"/>
						<g id="Group_15660" transform="translate(381.747 64.066)">
							<rect id="Rectangle_8841" x="0" y="-9" class="st3" width="13.7" height="12.8"/>
							<rect id="Rectangle_8842" x="1.3" y="-8.1" class="st4" width="11.1" height="11.1"/>
						</g>
						<rect id="Rectangle_8843" x="381.7" y="67.9" class="st3" width="13.7" height="12.8"/>
						<rect id="Rectangle_8844" x="381.7" y="80.7" class="st3" width="13.7" height="12.8"/>
						<rect id="Rectangle_8845" x="368" y="-9" class="st3" width="13.7" height="12.8"/>
						<rect id="Rectangle_8846" x="368" y="3.8" class="st3" width="13.7" height="12.8"/>
						<rect id="Rectangle_8847" x="368" y="16.6" class="st3" width="13.7" height="12.8"/>
						<rect id="Rectangle_8848" x="368" y="29.4" class="st3" width="13.7" height="12.8"/>
						<rect id="Rectangle_8849" x="368" y="42.3" class="st3" width="13.7" height="12.8"/>
						<rect id="Rectangle_8850" x="368" y="55.1" class="st3" width="13.7" height="12.8"/>
						<rect id="Rectangle_8851" x="368" y="106.3" class="st3" width="13.7" height="12.8"/>
						<rect id="Rectangle_8852" x="354.3" y="-9" class="st3" width="13.7" height="12.8"/>
						<rect id="Rectangle_8853" x="354.3" y="3.8" class="st3" width="13.7" height="12.8"/>
						<rect id="Rectangle_8854" x="354.3" y="16.6" class="st3" width="13.7" height="12.8"/>
						<rect id="Rectangle_8855" x="354.3" y="29.4" class="st3" width="13.7" height="12.8"/>
						<g id="Group_15661" transform="translate(354.29 51.253)">
							<rect id="Rectangle_8856" x="0" y="-9" class="st3" width="13.7" height="12.8"/>
							<rect id="Rectangle_8857" x="1.3" y="-8.1" class="st5" width="11.1" height="11.1"/>
						</g>
						<rect id="Rectangle_8858" x="354.3" y="55.1" class="st3" width="13.7" height="12.8"/>
						<rect id="Rectangle_8859" x="354.3" y="67.9" class="st3" width="13.7" height="12.8"/>
						<rect id="Rectangle_8860" x="354.3" y="80.7" class="st3" width="13.7" height="12.8"/>
						<g id="Group_15662" transform="translate(354.29 102.506)">
							<rect id="Rectangle_8861" x="0" y="-9" class="st3" width="13.7" height="12.8"/>
							<rect id="Rectangle_8862" x="1.3" y="-8.1" class="st4" width="11.1" height="11.1"/>
						</g>
						<rect id="Rectangle_8863" x="354.3" y="106.3" class="st3" width="13.7" height="12.8"/>
						<g id="Group_15663" transform="translate(354.29 128.133)">
							<rect id="Rectangle_8864" x="0" y="-9" class="st3" width="13.7" height="12.8"/>
							<rect id="Rectangle_8865" x="1.3" y="-8.1" class="st5" width="11.1" height="11.1"/>
						</g>
						<rect id="Rectangle_8866" x="368" y="131.9" class="st3" width="13.7" height="12.8"/>
						<rect id="Rectangle_8867" x="354.3" y="144.6" class="st3" width="13.7" height="12.8"/>
						<rect id="Rectangle_8868" x="354.3" y="157.4" class="st3" width="13.7" height="12.8"/>
						<rect id="Rectangle_8869" x="354.3" y="183.1" class="st3" width="13.7" height="12.8"/>
						<rect id="Rectangle_8870" x="340.6" y="-9" class="st3" width="13.7" height="12.8"/>
						<rect id="Rectangle_8871" x="340.6" y="3.8" class="st3" width="13.7" height="12.8"/>
						<rect id="Rectangle_8872" x="340.6" y="16.6" class="st3" width="13.7" height="12.8"/>
						<rect id="Rectangle_8873" x="340.6" y="29.4" class="st3" width="13.7" height="12.8"/>
						<g id="Group_15664" transform="translate(340.562 51.253)">
							<rect id="Rectangle_8874" x="0" y="-9" class="st3" width="13.7" height="12.8"/>
							<rect id="Rectangle_8875" x="1.3" y="-8.1" class="st5" width="11.1" height="11.1"/>
						</g>
						<rect id="Rectangle_8876" x="340.6" y="55.1" class="st3" width="13.7" height="12.8"/>
						<rect id="Rectangle_8877" x="340.6" y="67.9" class="st3" width="13.7" height="12.8"/>
						<rect id="Rectangle_8878" x="340.6" y="80.7" class="st3" width="13.7" height="12.8"/>
						<rect id="Rectangle_8879" x="340.6" y="93.5" class="st3" width="13.7" height="12.8"/>
						<rect id="Rectangle_8880" x="326.8" y="-9" class="st3" width="13.7" height="12.8"/>
						<rect id="Rectangle_8881" x="326.8" y="3.8" class="st3" width="13.7" height="12.8"/>
						<rect id="Rectangle_8882" x="326.8" y="16.6" class="st3" width="13.7" height="12.8"/>
						<rect id="Rectangle_8883" x="326.8" y="29.4" class="st3" width="13.7" height="12.8"/>
						<rect id="Rectangle_8884" x="326.8" y="42.3" class="st3" width="13.7" height="12.8"/>
						<rect id="Rectangle_8885" x="326.8" y="55.1" class="st3" width="13.7" height="12.8"/>
						<rect id="Rectangle_8886" x="326.8" y="67.9" class="st3" width="13.7" height="12.8"/>
						<rect id="Rectangle_8887" x="326.8" y="80.7" class="st3" width="13.7" height="12.8"/>
						<rect id="Rectangle_8888" x="326.8" y="93.5" class="st3" width="13.7" height="12.8"/>
						<rect id="Rectangle_8889" x="313.1" y="-9" class="st3" width="13.7" height="12.8"/>
						<rect id="Rectangle_8890" x="313.1" y="3.8" class="st3" width="13.7" height="12.8"/>
						<rect id="Rectangle_8891" x="313.1" y="16.6" class="st3" width="13.7" height="12.8"/>
						<rect id="Rectangle_8892" x="313.1" y="29.4" class="st3" width="13.7" height="12.8"/>
						<rect id="Rectangle_8893" x="313.1" y="42.3" class="st3" width="13.7" height="12.8"/>
						<rect id="Rectangle_8894" x="313.1" y="119.1" class="st3" width="13.7" height="12.8"/>
						<rect id="Rectangle_8895" x="313.1" y="144.8" class="st3" width="13.7" height="12.8"/>
						<rect id="Rectangle_8896" x="313.1" y="55.1" class="st3" width="13.7" height="12.8"/>
						<g id="Group_15665" transform="translate(313.105 76.88)">
							<rect id="Rectangle_8897" x="0" y="-9" class="st3" width="13.7" height="12.8"/>
							<rect id="Rectangle_8898" x="1.3" y="-8.1" class="st4" width="11.1" height="11.1"/>
						</g>
						<rect id="Rectangle_8899" x="299.4" y="-9" class="st3" width="13.7" height="12.8"/>
						<rect id="Rectangle_8900" x="299.4" y="3.8" class="st3" width="13.7" height="12.8"/>
						<rect id="Rectangle_8901" x="299.4" y="16.6" class="st3" width="13.7" height="12.8"/>
						<rect id="Rectangle_8902" x="299.4" y="29.4" class="st3" width="13.7" height="12.8"/>
						<rect id="Rectangle_8903" x="299.4" y="42.3" class="st3" width="13.7" height="12.8"/>
						<rect id="Rectangle_8904" x="299.4" y="55.1" class="st3" width="13.7" height="12.8"/>
						<rect id="Rectangle_8905" x="299.4" y="67.9" class="st3" width="13.7" height="12.8"/>
						<rect id="Rectangle_8906" x="299.4" y="80.7" class="st3" width="13.7" height="12.8"/>
						<rect id="Rectangle_8907" x="299.4" y="93.5" class="st3" width="13.7" height="12.8"/>
						<rect id="Rectangle_8908" x="299.4" y="106.3" class="st3" width="13.7" height="12.8"/>
						<rect id="Rectangle_8909" x="285.6" y="-9" class="st3" width="13.7" height="12.8"/>
						<rect id="Rectangle_8910" x="285.6" y="3.8" class="st3" width="13.7" height="12.8"/>
						<rect id="Rectangle_8911" x="285.6" y="16.6" class="st3" width="13.7" height="12.8"/>
						<rect id="Rectangle_8912" x="285.6" y="29.4" class="st3" width="13.7" height="12.8"/>
						<rect id="Rectangle_8913" x="285.6" y="42.3" class="st3" width="13.7" height="12.8"/>
						<rect id="Rectangle_8914" x="285.6" y="55.1" class="st3" width="13.7" height="12.8"/>
						<rect id="Rectangle_8915" x="285.6" y="67.9" class="st3" width="13.7" height="12.8"/>
						<rect id="Rectangle_8916" x="285.6" y="80.7" class="st3" width="13.7" height="12.8"/>
						<rect id="Rectangle_8917" x="285.6" y="93.5" class="st3" width="13.7" height="12.8"/>
						<g id="Group_15666" transform="translate(285.648 115.319)">
							<rect id="Rectangle_8918" x="0" y="-9" class="st3" width="13.7" height="12.8"/>
							<rect id="Rectangle_8919" x="1.3" y="-8.1" class="st4" width="11.1" height="11.1"/>
						</g>
						<rect id="Rectangle_8920" x="285.6" y="131.9" class="st3" width="13.7" height="12.8"/>
						<rect id="Rectangle_8921" x="285.6" y="157.6" class="st3" width="13.7" height="12.8"/>
						<rect id="Rectangle_8922" x="285.6" y="170.4" class="st3" width="13.7" height="12.8"/>
						<g id="Group_15667" transform="translate(285.648 192.199)">
							<rect id="Rectangle_8923" x="0" y="-9" class="st3" width="13.7" height="12.8"/>
						</g>
						<rect id="Rectangle_8924" x="271.9" y="-9" class="st3" width="13.7" height="12.8"/>
						<rect id="Rectangle_8925" x="271.9" y="3.8" class="st3" width="13.7" height="12.8"/>
						<rect id="Rectangle_8926" x="271.9" y="16.6" class="st3" width="13.7" height="12.8"/>
						<g id="Group_15668" transform="translate(271.919 38.44)">
							<rect id="Rectangle_8927" x="0" y="-9" class="st3" width="13.7" height="12.8"/>
							<rect id="Rectangle_8928" x="1.3" y="-8.1" class="st4" width="11.1" height="11.1"/>
						</g>
						<g id="Group_15669" transform="translate(271.919 51.253)">
							<rect id="Rectangle_8929" x="0" y="-9" class="st3" width="13.7" height="12.8"/>
							<rect id="Rectangle_8930" x="1.3" y="-8.1" class="st4" width="11.1" height="11.1"/>
						</g>
						<rect id="Rectangle_8931" x="271.9" y="55.1" class="st3" width="13.7" height="12.8"/>
						<rect id="Rectangle_8932" x="271.9" y="67.9" class="st3" width="13.7" height="12.8"/>
						<rect id="Rectangle_8933" x="271.9" y="80.7" class="st3" width="13.7" height="12.8"/>
						<rect id="Rectangle_8934" x="258.2" y="-9" class="st3" width="13.7" height="12.8"/>
						<rect id="Rectangle_8935" x="258.2" y="3.8" class="st3" width="13.7" height="12.8"/>
						<rect id="Rectangle_8936" x="258.2" y="16.6" class="st3" width="13.7" height="12.8"/>
						<rect id="Rectangle_8937" x="258.2" y="29.4" class="st3" width="13.7" height="12.8"/>
						<rect id="Rectangle_8938" x="258.2" y="42.3" class="st3" width="13.7" height="12.8"/>
						<rect id="Rectangle_8939" x="258.2" y="55.1" class="st3" width="13.7" height="12.8"/>
						<rect id="Rectangle_8940" x="258.2" y="67.9" class="st3" width="13.7" height="12.8"/>
						<rect id="Rectangle_8941" x="258.2" y="80.7" class="st3" width="13.7" height="12.8"/>
						<rect id="Rectangle_8942" x="244.5" y="-9" class="st3" width="13.7" height="12.8"/>
						<rect id="Rectangle_8943" x="244.5" y="3.8" class="st3" width="13.7" height="12.8"/>
						<rect id="Rectangle_8944" x="244.5" y="16.6" class="st3" width="13.7" height="12.8"/>
						<rect id="Rectangle_8945" x="244.5" y="29.4" class="st3" width="13.7" height="12.8"/>
						<rect id="Rectangle_8946" x="244.5" y="42.3" class="st3" width="13.7" height="12.8"/>
						<g id="Group_15670" transform="translate(244.462 64.066)">
							<rect id="Rectangle_8947" x="0" y="-9" class="st3" width="13.7" height="12.8"/>
							<rect id="Rectangle_8948" x="1.3" y="-8.1" class="st4" width="11.1" height="11.1"/>
						</g>
						<rect id="Rectangle_8949" x="244.5" y="67.9" class="st3" width="13.7" height="12.8"/>
						<rect id="Rectangle_8950" x="244.5" y="80.7" class="st3" width="13.7" height="12.8"/>
						<rect id="Rectangle_8951" x="230.7" y="-9" class="st3" width="13.7" height="12.8"/>
						<rect id="Rectangle_8952" x="230.7" y="3.8" class="st3" width="13.7" height="12.8"/>
						<rect id="Rectangle_8953" x="230.7" y="16.6" class="st3" width="13.7" height="12.8"/>
						<rect id="Rectangle_8954" x="230.7" y="29.4" class="st3" width="13.7" height="12.8"/>
						<rect id="Rectangle_8955" x="230.7" y="42.3" class="st3" width="13.7" height="12.8"/>
						<rect id="Rectangle_8956" x="230.7" y="55.1" class="st3" width="13.7" height="12.8"/>
						<rect id="Rectangle_8957" x="230.7" y="67.9" class="st3" width="13.7" height="12.8"/>
						<rect id="Rectangle_8958" x="230.7" y="80.7" class="st3" width="13.7" height="12.8"/>
						<g id="Group_15671" transform="translate(230.734 102.506)">
							<rect id="Rectangle_8959" x="0" y="-9" class="st3" width="13.7" height="12.8"/>
							<rect id="Rectangle_8960" x="1.3" y="-8.1" class="st5" width="11.1" height="11.1"/>
						</g>
						<rect id="Rectangle_8961" x="217" y="-9" class="st3" width="13.7" height="12.8"/>
						<rect id="Rectangle_8962" x="217" y="3.8" class="st3" width="13.7" height="12.8"/>
						<rect id="Rectangle_8963" x="217" y="16.6" class="st3" width="13.7" height="12.8"/>
						<rect id="Rectangle_8964" x="217" y="29.4" class="st3" width="13.7" height="12.8"/>
						<rect id="Rectangle_8965" x="217" y="42.3" class="st3" width="13.7" height="12.8"/>
						<g id="Group_15672" transform="translate(217.005 64.066)">
							<rect id="Rectangle_8966" x="0" y="-9" class="st3" width="13.7" height="12.8"/>
							<rect id="Rectangle_8967" x="1.3" y="-8.1" class="st5" width="11.1" height="11.1"/>
						</g>
						<g id="Group_15673" transform="translate(217.005 76.88)">
							<rect id="Rectangle_8968" x="0" y="-9" class="st3" width="13.7" height="12.8"/>
							<rect id="Rectangle_8969" x="1.3" y="-8.1" class="st5" width="11.1" height="11.1"/>
						</g>
						<rect id="Rectangle_8970" x="217" y="80.7" class="st3" width="13.7" height="12.8"/>
						<rect id="Rectangle_8971" x="217" y="93.5" class="st3" width="13.7" height="12.8"/>
						<rect id="Rectangle_8972" x="217" y="106.3" class="st3" width="13.7" height="12.8"/>
						<rect id="Rectangle_8973" x="203.3" y="-9" class="st3" width="13.7" height="12.8"/>
						<rect id="Rectangle_8974" x="203.3" y="3.8" class="st3" width="13.7" height="12.8"/>
						<rect id="Rectangle_8975" x="203.3" y="16.6" class="st3" width="13.7" height="12.8"/>
						<rect id="Rectangle_8976" x="203.3" y="29.4" class="st3" width="13.7" height="12.8"/>
						<rect id="Rectangle_8977" x="203.3" y="42.3" class="st3" width="13.7" height="12.8"/>
						<rect id="Rectangle_8978" x="203.3" y="55.1" class="st3" width="13.7" height="12.8"/>
						<rect id="Rectangle_8979" x="203.3" y="93.5" class="st3" width="13.7" height="12.8"/>
						<rect id="Rectangle_8980" x="203.3" y="106.3" class="st3" width="13.7" height="12.8"/>
						<rect id="Rectangle_8981" x="203.3" y="119.1" class="st3" width="13.7" height="12.8"/>
						<rect id="Rectangle_8982" x="203.3" y="131.9" class="st3" width="13.7" height="12.8"/>
						<rect id="Rectangle_8983" x="189.5" y="-9" class="st3" width="13.7" height="12.8"/>
						<rect id="Rectangle_8984" x="189.5" y="3.8" class="st3" width="13.7" height="12.8"/>
						<rect id="Rectangle_8985" x="189.5" y="16.6" class="st3" width="13.7" height="12.8"/>
						<rect id="Rectangle_8986" x="189.5" y="29.4" class="st3" width="13.7" height="12.8"/>
						<rect id="Rectangle_8987" x="189.5" y="42.3" class="st3" width="13.7" height="12.8"/>
						<rect id="Rectangle_8988" x="189.5" y="55.1" class="st3" width="13.7" height="12.8"/>
						<rect id="Rectangle_8989" x="189.5" y="67.9" class="st3" width="13.7" height="12.8"/>
						<rect id="Rectangle_8990" x="217" y="183.2" class="st3" width="13.7" height="12.8"/>
						<g id="Group_15674" transform="translate(189.548 89.693)">
							<rect id="Rectangle_8991" x="0" y="-9" class="st3" width="13.7" height="12.8"/>
							<rect id="Rectangle_8992" x="1.3" y="-8.1" class="st4" width="11.1" height="11.1"/>
						</g>
						<g id="Group_15675" transform="translate(189.548 102.506)">
							<rect id="Rectangle_8993" x="0" y="-9" class="st3" width="13.7" height="12.8"/>
							<rect id="Rectangle_8994" x="1.3" y="-8.1" class="st4" width="11.1" height="11.1"/>
						</g>
						<rect id="Rectangle_8995" x="189.5" y="106.3" class="st3" width="13.7" height="12.8"/>
						<rect id="Rectangle_8996" x="189.5" y="119.1" class="st3" width="13.7" height="12.8"/>
						<rect id="Rectangle_8997" x="175.8" y="-9" class="st3" width="13.7" height="12.8"/>
						<rect id="Rectangle_8998" x="175.8" y="3.8" class="st3" width="13.7" height="12.8"/>
						<rect id="Rectangle_8999" x="175.8" y="16.6" class="st3" width="13.7" height="12.8"/>
						<rect id="Rectangle_9000" x="175.8" y="29.4" class="st3" width="13.7" height="12.8"/>
						<rect id="Rectangle_9001" x="175.8" y="42.3" class="st3" width="13.7" height="12.8"/>
						<rect id="Rectangle_9002" x="175.8" y="55.1" class="st3" width="13.7" height="12.8"/>
						<rect id="Rectangle_9003" x="175.8" y="67.9" class="st3" width="13.7" height="12.8"/>
						<rect id="Rectangle_9004" x="175.8" y="80.7" class="st3" width="13.7" height="12.8"/>
						<g id="Group_15676" transform="translate(175.82 102.506)">
							<rect id="Rectangle_9005" x="0" y="-9" class="st3" width="13.7" height="12.8"/>
							<rect id="Rectangle_9006" x="1.3" y="-8.1" class="st4" width="11.1" height="11.1"/>
						</g>
						<g id="Group_15677" transform="translate(175.82 115.319)">
							<rect id="Rectangle_9007" x="0" y="-9" class="st3" width="13.7" height="12.8"/>
							<rect id="Rectangle_9008" x="1.3" y="-8.1" class="st4" width="11.1" height="11.1"/>
						</g>
						<rect id="Rectangle_9009" x="175.8" y="119.1" class="st3" width="13.7" height="12.8"/>
						<rect id="Rectangle_9010" x="162.1" y="-9" class="st3" width="13.7" height="12.8"/>
						<rect id="Rectangle_9011" x="162.1" y="3.8" class="st3" width="13.7" height="12.8"/>
						<rect id="Rectangle_9012" x="162.1" y="16.6" class="st3" width="13.7" height="12.8"/>
						<rect id="Rectangle_9013" x="162.1" y="29.4" class="st3" width="13.7" height="12.8"/>
						<g id="Group_15678" transform="translate(162.091 51.253)">
							<rect id="Rectangle_9014" x="0" y="-9" class="st3" width="13.7" height="12.8"/>
							<rect id="Rectangle_9015" x="1.3" y="-8.1" class="st4" width="11.1" height="11.1"/>
						</g>
						<rect id="Rectangle_9016" x="162.1" y="67.9" class="st3" width="13.7" height="12.8"/>
						<rect id="Rectangle_9017" x="162.1" y="80.7" class="st3" width="13.7" height="12.8"/>
						<rect id="Rectangle_9018" x="162.1" y="93.5" class="st3" width="13.7" height="12.8"/>
						<g id="Group_15679" transform="translate(162.091 115.319)">
							<rect id="Rectangle_9019" x="0" y="-9" class="st3" width="13.7" height="12.8"/>
							<rect id="Rectangle_9020" x="1.3" y="-8.1" class="st5" width="11.1" height="11.1"/>
						</g>
						<g id="Group_15680" transform="translate(162.091 140.946)">
							<rect id="Rectangle_9021" x="0" y="-9" class="st3" width="13.7" height="12.8"/>
							<rect id="Rectangle_9022" x="1.3" y="-8.1" class="st4" width="11.1" height="11.1"/>
						</g>
						<rect id="Rectangle_9023" x="148.4" y="-9" class="st3" width="13.7" height="12.8"/>
						<rect id="Rectangle_9024" x="148.4" y="3.8" class="st3" width="13.7" height="12.8"/>
						<rect id="Rectangle_9025" x="148.4" y="16.6" class="st3" width="13.7" height="12.8"/>
						<rect id="Rectangle_9026" x="148.4" y="29.4" class="st3" width="13.7" height="12.8"/>
						<rect id="Rectangle_9027" x="148.4" y="42.3" class="st3" width="13.7" height="12.8"/>
						<rect id="Rectangle_9028" x="148.4" y="55.1" class="st3" width="13.7" height="12.8"/>
						<rect id="Rectangle_9029" x="148.4" y="67.9" class="st3" width="13.7" height="12.8"/>
						<rect id="Rectangle_9030" x="148.4" y="80.7" class="st3" width="13.7" height="12.8"/>
						<rect id="Rectangle_9031" x="148.4" y="93.5" class="st3" width="13.7" height="12.8"/>
						<rect id="Rectangle_9032" x="148.4" y="106.3" class="st3" width="13.7" height="12.8"/>
						<rect id="Rectangle_9033" x="148.4" y="131.9" class="st3" width="13.7" height="12.8"/>
						<rect id="Rectangle_9034" x="134.6" y="-9" class="st3" width="13.7" height="12.8"/>
						<rect id="Rectangle_9035" x="134.6" y="3.8" class="st3" width="13.7" height="12.8"/>
						<rect id="Rectangle_9036" x="134.6" y="16.6" class="st3" width="13.7" height="12.8"/>
						<rect id="Rectangle_9037" x="134.6" y="29.4" class="st3" width="13.7" height="12.8"/>
						<rect id="Rectangle_9038" x="134.6" y="42.3" class="st3" width="13.7" height="12.8"/>
						<rect id="Rectangle_9039" x="134.6" y="55.1" class="st3" width="13.7" height="12.8"/>
						<g id="Group_15681" transform="translate(134.634 76.88)">
							<rect id="Rectangle_9040" x="0" y="-9" class="st3" width="13.7" height="12.8"/>
							<rect id="Rectangle_9041" x="1.3" y="-8.1" class="st4" width="11.1" height="11.1"/>
						</g>
						<rect id="Rectangle_9042" x="134.6" y="80.7" class="st3" width="13.7" height="12.8"/>
						<rect id="Rectangle_9043" x="134.6" y="93.5" class="st3" width="13.7" height="12.8"/>
						<rect id="Rectangle_9044" x="134.6" y="106.3" class="st3" width="13.7" height="12.8"/>
						<rect id="Rectangle_9045" x="134.6" y="119.1" class="st3" width="13.7" height="12.8"/>
						<rect id="Rectangle_9046" x="134.6" y="131.9" class="st3" width="13.7" height="12.8"/>
						<rect id="Rectangle_9047" x="120.9" y="-9" class="st3" width="13.7" height="12.8"/>
						<rect id="Rectangle_9048" x="120.9" y="3.8" class="st3" width="13.7" height="12.8"/>
						<rect id="Rectangle_9049" x="120.9" y="16.6" class="st3" width="13.7" height="12.8"/>
						<rect id="Rectangle_9050" x="120.9" y="29.4" class="st3" width="13.7" height="12.8"/>
						<rect id="Rectangle_9051" x="120.9" y="42.3" class="st3" width="13.7" height="12.8"/>
						<rect id="Rectangle_9052" x="120.9" y="55.1" class="st3" width="13.7" height="12.8"/>
						<rect id="Rectangle_9053" x="120.9" y="67.9" class="st3" width="13.7" height="12.8"/>
						<rect id="Rectangle_9054" x="120.9" y="80.7" class="st3" width="13.7" height="12.8"/>
						<rect id="Rectangle_9055" x="120.9" y="106.3" class="st3" width="13.7" height="12.8"/>
						<rect id="Rectangle_9056" x="120.9" y="119.1" class="st3" width="13.7" height="12.8"/>
						<rect id="Rectangle_9057" x="120.9" y="131.9" class="st3" width="13.7" height="12.8"/>
						<rect id="Rectangle_9058" x="107.2" y="-9" class="st3" width="13.7" height="12.8"/>
						<rect id="Rectangle_9059" x="107.2" y="3.8" class="st3" width="13.7" height="12.8"/>
						<rect id="Rectangle_9060" x="107.2" y="16.6" class="st3" width="13.7" height="12.8"/>
						<rect id="Rectangle_9061" x="107.2" y="29.4" class="st3" width="13.7" height="12.8"/>
						<g id="Group_15682" transform="translate(107.177 51.253)">
							<rect id="Rectangle_9062" x="0" y="-9" class="st3" width="13.7" height="12.8"/>
							<rect id="Rectangle_9063" x="1.3" y="-8.1" class="st4" width="11.1" height="11.1"/>
						</g>
						<g id="Group_15683" transform="translate(107.177 64.066)">
							<rect id="Rectangle_9064" x="0" y="-9" class="st3" width="13.7" height="12.8"/>
							<rect id="Rectangle_9065" x="1.3" y="-8.1" class="st5" width="11.1" height="11.1"/>
						</g>
						<rect id="Rectangle_9066" x="107.2" y="67.9" class="st3" width="13.7" height="12.8"/>
						<rect id="Rectangle_9067" x="107.2" y="80.7" class="st3" width="13.7" height="12.8"/>
						<rect id="Rectangle_9068" x="107.2" y="183.2" class="st3" width="13.7" height="12.8"/>
						<rect id="Rectangle_9069" x="107.2" y="196" class="st3" width="13.7" height="12.8"/>
						<g id="Group_15684" transform="translate(107.177 256.265)">
							<rect id="Rectangle_9071" x="0" y="-9" class="st3" width="13.7" height="12.8"/>
						</g>
						<g id="Group_15685" transform="translate(120.906 256.265)">
							<rect id="Rectangle_9072" x="0" y="-9" class="st3" width="13.7" height="12.8"/>
						</g>
						<g id="Group_15686" transform="translate(107.177 269.079)">
							<rect id="Rectangle_9073" x="0" y="-9" class="st3" width="13.7" height="12.8"/>
						</g>
						<rect id="Rectangle_9074" x="107.2" y="93.5" class="st3" width="13.7" height="12.8"/>
						<g id="Group_15687" transform="translate(107.177 140.946)">
							<rect id="Rectangle_9075" x="0" y="-9" class="st3" width="13.7" height="12.8"/>
							<rect id="Rectangle_9076" x="1.3" y="-8.1" class="st4" width="11.1" height="11.1"/>
						</g>
						<rect id="Rectangle_9077" x="107.2" y="144.8" class="st3" width="13.7" height="12.8"/>
						<rect id="Rectangle_9078" x="107.2" y="157.6" class="st3" width="13.7" height="12.8"/>
						<rect id="Rectangle_9079" x="93.4" y="-9" class="st3" width="13.7" height="12.8"/>
						<rect id="Rectangle_9080" x="93.4" y="3.8" class="st3" width="13.7" height="12.8"/>
						<rect id="Rectangle_9081" x="93.4" y="16.6" class="st3" width="13.7" height="12.8"/>
						<rect id="Rectangle_9082" x="93.4" y="29.4" class="st3" width="13.7" height="12.8"/>
						<rect id="Rectangle_9083" x="93.4" y="42.3" class="st3" width="13.7" height="12.8"/>
						<rect id="Rectangle_9084" x="93.4" y="55.1" class="st3" width="13.7" height="12.8"/>
						<rect id="Rectangle_9085" x="93.4" y="67.9" class="st3" width="13.7" height="12.8"/>
						<rect id="Rectangle_9086" x="93.4" y="80.7" class="st3" width="13.7" height="12.8"/>
						<rect id="Rectangle_9087" x="93.4" y="106.3" class="st3" width="13.7" height="12.8"/>
						<rect id="Rectangle_9088" x="93.4" y="119.1" class="st3" width="13.7" height="12.8"/>
						<rect id="Rectangle_9089" x="79.7" y="-9" class="st3" width="13.7" height="12.8"/>
						<rect id="Rectangle_9090" x="79.7" y="3.8" class="st3" width="13.7" height="12.8"/>
						<rect id="Rectangle_9091" x="79.7" y="16.6" class="st3" width="13.7" height="12.8"/>
						<rect id="Rectangle_9092" x="79.7" y="29.4" class="st3" width="13.7" height="12.8"/>
						<rect id="Rectangle_9093" x="79.7" y="42.3" class="st3" width="13.7" height="12.8"/>
						<rect id="Rectangle_9094" x="79.7" y="55.1" class="st3" width="13.7" height="12.8"/>
						<g id="Group_15688" transform="translate(79.72 76.88)">
							<rect id="Rectangle_9095" x="0" y="-9" class="st3" width="13.7" height="12.8"/>
							<rect id="Rectangle_9096" x="1.3" y="-8.1" class="st4" width="11.1" height="11.1"/>
						</g>
						<g id="Group_15689" transform="translate(79.72 89.693)">
							<rect id="Rectangle_9097" x="0" y="-9" class="st3" width="13.7" height="12.8"/>
							<rect id="Rectangle_9098" x="1.3" y="-8.1" class="st4" width="11.1" height="11.1"/>
						</g>
						<rect id="Rectangle_9099" x="79.7" y="93.5" class="st3" width="13.7" height="12.8"/>
						<rect id="Rectangle_9100" x="79.7" y="106.3" class="st3" width="13.7" height="12.8"/>
						<rect id="Rectangle_9101" x="79.7" y="119.1" class="st3" width="13.7" height="12.8"/>
						<rect id="Rectangle_9102" x="66" y="-9" class="st3" width="13.7" height="12.8"/>
						<rect id="Rectangle_9103" x="66" y="3.8" class="st3" width="13.7" height="12.8"/>
						<rect id="Rectangle_9104" x="66" y="16.6" class="st3" width="13.7" height="12.8"/>
						<rect id="Rectangle_9105" x="66" y="93.5" class="st3" width="13.7" height="12.8"/>
						<rect id="Rectangle_9106" x="66" y="106.3" class="st3" width="13.7" height="12.8"/>
						<rect id="Rectangle_9107" x="52.3" y="-9" class="st3" width="13.7" height="12.8"/>
						<rect id="Rectangle_9108" x="52.3" y="3.8" class="st3" width="13.7" height="12.8"/>
						<rect id="Rectangle_9109" x="52.3" y="16.6" class="st3" width="13.7" height="12.8"/>
						<rect id="Rectangle_9110" x="52.3" y="29.4" class="st3" width="13.7" height="12.8"/>
						<rect id="Rectangle_9111" x="52.3" y="42.3" class="st3" width="13.7" height="12.8"/>
						<rect id="Rectangle_9112" x="52.3" y="55.1" class="st3" width="13.7" height="12.8"/>
						<rect id="Rectangle_9113" x="52.3" y="67.9" class="st3" width="13.7" height="12.8"/>
						<g id="Group_15690" transform="translate(52.263 89.693)">
							<rect id="Rectangle_9114" x="0" y="-9" class="st3" width="13.7" height="12.8"/>
							<rect id="Rectangle_9115" x="1.3" y="-8.1" class="st5" width="11.1" height="11.1"/>
						</g>
						<rect id="Rectangle_9116" x="450.2" y="170.4" class="st3" width="13.7" height="12.8"/>
						<rect id="Rectangle_9117" x="450.2" y="183.2" class="st3" width="13.7" height="12.8"/>
						<rect id="Rectangle_9118" x="450.2" y="208.8" class="st3" width="13.7" height="12.8"/>
						<g id="Group_15691" transform="translate(79.449 217.826)">
							<rect id="Rectangle_9119" x="0" y="-9" class="st3" width="13.7" height="12.8"/>
							<rect id="Rectangle_9120" x="1.3" y="-8.1" class="st5" width="11.1" height="11.1"/>
						</g>
						<g id="Group_15692" transform="translate(0 0.88)">
							
								<linearGradient id="Path_4333_1_" gradientUnits="userSpaceOnUse" x1="-658.5811" y1="742.8716" x2="-657.6671" y2="743.3546" gradientTransform="matrix(600.9922 0 0 -826.207 395897 614264.625)">
								<stop  offset="0" style="stop-color:#001D38"/>
								<stop  offset="0.103" style="stop-color:#004676"/>
								<stop  offset="0.385" style="stop-color:#007CC3"/>
								<stop  offset="0.457" style="stop-color:#009EE6"/>
								<stop  offset="0.576" style="stop-color:#0076B8"/>
								<stop  offset="0.784" style="stop-color:#004676"/>
								<stop  offset="1" style="stop-color:#00172F"/>
							</linearGradient>
							<path id="Path_4333" class="st6" d="M327.2,216.8c-17.2-2.4-34.6-2.4-51.8-0.1c-84.5,7.2-162.1,49.7-213.7,117.1l-0.2-0.2
								l-5.6,7.7l-5.5,7.7l0.2,0.2C17.6,398.6-0.1,456.7,0,516.1c0,156.7,120.6,285.7,273.8,299.3c17.7,2.5,35.6,2.5,53.3,0
								C480.5,801.8,601,672.8,601,516.1C601,359.4,480.5,230.4,327.2,216.8z M237.9,245.5c-8.5,9-16.1,19-22.5,29.6h-30.7
								C200.9,262.7,218.8,252.7,237.9,245.5z M205,294.1c-9.2,18.2-17.2,39.3-24,63l-0.1,0l-2.4,9.2l-2.4,9.2h0.2
								c-0.2,0.8-0.4,1.6-0.6,2.5h-70c1-2.2,1.9-4.5,2.9-6.7c13.5-28.7,31.9-54.8,54.4-77.1L205,294.1z M160.2,506.6H77
								c0.9-37.5,7.9-74.6,20.8-109.8h73.6C164.4,433,160.7,469.7,160.2,506.6L160.2,506.6z M171.2,635.4H97.8
								c-13-35.2-20-72.3-20.9-109.8h83.3C160.6,562.4,164.2,599.2,171.2,635.4L171.2,635.4z M71.4,352.4
								c15.8-22,34.7-41.7,56.2-58.3h9.2c-16.2,18.3-30,38.7-41.1,60.5l-0.2-0.1l-4.1,8.5l-4.1,8.6l0.3,0.1c-0.9,2-1.8,4-2.7,6.1
								H55.4C60.3,369.1,65.6,360.6,71.4,352.4L71.4,352.4z M45.6,396.8h32c-12.2,35.4-18.8,72.4-19.7,109.8H19.4
								C20.5,468.6,29.4,431.2,45.6,396.8L45.6,396.8z M19.2,525.6h38.6c0.9,37.4,7.5,74.5,19.7,109.8h-32
								C29.4,601,20.4,563.6,19.2,525.6z M127.7,738.1c-29.4-22.9-53.9-51.4-72.3-83.7H85c13.2,31.6,30.7,60,51.7,83.7L127.7,738.1z
								 M155.1,757.1C155.1,757.1,155.1,757.1,155.1,757.1L155.1,757.1L155.1,757.1z M105.5,654.3h69.8c7.5,31.7,17.5,60,29.5,83.7
								h-42.2C139.6,715.2,120.1,686.8,105.5,654.3L105.5,654.3z M184.2,757.1h31.1c6.6,10.8,14.3,20.8,23,30
								C218.8,779.9,200.6,769.8,184.2,757.1L184.2,757.1z M291,797.2c-19-3.6-37-17.8-52.7-40.1H291V797.2z M291,738.1h-64.4
								c-12.6-22.9-23.4-51.4-31.5-83.7H291L291,738.1z M291,635.4H190.9c-7.4-36.2-11.3-72.9-11.7-109.8H291L291,635.4z M291,506.6
								H179.2c0.4-36.9,4.3-73.6,11.5-109.8H291L291,506.6z M291,377.8h-96c0.6-2.3,1.1-4.6,1.7-6.8c7.9-30,18.1-55.8,29.7-76.9H291
								L291,377.8z M291,275.1h-52.8c16.1-22.6,34.1-36.6,52.8-40.1L291,275.1z M581.8,506.6h-38.7c-0.9-37.4-7.5-74.4-19.7-109.8
								h32.1C571.6,431.2,580.6,468.6,581.8,506.6L581.8,506.6z M440.9,506.6c-0.4-36.9-4.1-73.6-11-109.8h73.4
								c12.9,35.2,20,72.3,20.8,109.8H440.9z M524.1,525.6c-0.9,37.5-7.9,74.6-20.8,109.8h-73.4c6.9-36.2,10.6-73,11-109.8
								L524.1,525.6z M473.4,294.1c29.3,22.9,53.9,51.4,72.3,83.7H516c-13.2-31.6-30.7-60-51.7-83.7H473.4z M495.5,377.8h-69.8
								c-7.4-31.7-17.4-60-29.4-83.7h42.1C461.5,316.9,481,345.4,495.5,377.8L495.5,377.8z M416.8,275.1h-31.2
								c-6.6-10.8-14.3-20.8-23-30C382.2,252.3,400.4,262.4,416.8,275.1L416.8,275.1z M310,234.9c19.1,3.6,37,17.8,52.7,40.2H310
								V234.9z M310,294.1h64.4c12.6,22.9,23.3,51.5,31.4,83.7H310V294.1z M310,396.8h100.2c7.3,36.2,11.2,72.9,11.7,109.8H310
								V396.8z M310,525.6h111.9c-0.4,36.9-4.3,73.7-11.7,109.8H310V525.6z M310,654.3h95.8c-8.1,32.3-18.8,60.8-31.4,83.7H310
								V654.3z M310,797.2v-40.1h52.7C347,779.4,329,793.6,310,797.2L310,797.2z M362.7,787.1c8.7-9.2,16.4-19.2,23-30h31.2
								C400.4,769.8,382.2,779.9,362.7,787.1L362.7,787.1z M396.3,738.1c12-23.7,22-52,29.4-83.7h69.8c-14.5,32.5-34,60.9-57.2,83.7
								H396.3z M473.4,738.1h-9.1c21-23.8,38.5-52.1,51.7-83.7h29.6C527.3,686.7,502.7,715.2,473.4,738.1L473.4,738.1z M555.4,635.4
								h-32.1c12.2-35.4,18.9-72.4,19.7-109.8h38.7C580.6,563.6,571.6,601,555.4,635.4L555.4,635.4z M545.1,2h-11.1V-9h11.1V2z
								 M545.1,14.9h-11.1v-11h11.1V14.9z M545.1,27.7h-11.1v-11h11.1V27.7z M545.1,40.5h-11.1v-11h11.1V40.5z M545.1,53.3h-11.1
								v-11h11.1V53.3z M545.1,66.1h-11.1v-11h11.1V66.1z M545.1,78.9h-11.1v-11h11.1V78.9z M545.1,91.7h-11.1v-11h11.1V91.7z
								 M545.1,104.6h-11.1v-11h11.1V104.6z M545.1,155.8h-11.1v-11h11.1V155.8z M545.1,168.6h-11.1v-11h11.1V168.6z M531.4,2.1
								h-11.1V-9h11.1V2.1z M531.4,14.9h-11.1V3.8h11.1V14.9z M531.4,27.7h-11.1V16.6h11.1V27.7z M531.4,40.5h-11.1V29.4h11.1V40.5z
								 M531.4,78.9h-11.1V67.9h11.1V78.9z M531.4,130.2h-11.1v-11.1h11.1V130.2z M531.4,143h-11.1v-11.1h11.1V143z M531.4,155.8
								h-11.1v-11.1h11.1V155.8z M517.7,2.1h-11.1V-9h11.1V2.1z M517.7,14.9h-11.1v-11h11.1V14.9z M517.7,27.7h-11.1v-11h11.1V27.7z
								 M517.7,40.5h-11.1v-11h11.1V40.5z M517.7,53.3h-11.1v-11h11.1V53.3z M517.7,66.1h-11.1v-11h11.1V66.1z M517.7,78.9h-11.1
								v-11h11.1V78.9z M517.7,91.7h-11.1V80.7h11.1V91.7z M517.7,104.6h-11.1V93.5h11.1V104.6z M517.7,117.4h-11.1v-11.1h11.1
								V117.4z M517.7,130.2h-11.1v-11h11.1V130.2z M517.7,143h-11.1v-11h11.1V143z M504,2h-11.1V-9H504V2z M504,14.9h-11.1v-11H504
								V14.9z M504,27.7h-11.1v-11H504V27.7z M504,40.5h-11.1v-11H504V40.5z M504,53.3h-11.1v-11H504V53.3z M504,66.1h-11.1v-11H504
								V66.1z M504,78.9h-11.1v-11H504V78.9z M504,91.7h-11.1v-11H504V91.7z M504,104.6h-11.1v-11H504V104.6z M504,117.4h-11.1v-11
								H504V117.4z M504,130.2h-11.1v-11H504V130.2z M504,143h-11.1v-11H504V143z M490.2,2h-11.1V-9h11.1L490.2,2z M490.2,14.9
								h-11.1v-11h11.1L490.2,14.9z M490.2,27.7h-11.1v-11h11.1L490.2,27.7z M490.2,40.5h-11.1v-11h11.1L490.2,40.5z M490.2,66.1
								h-11.1v-11h11.1L490.2,66.1z M490.2,78.9h-11.1v-11h11.1L490.2,78.9z M490.2,104.6h-11.1v-11h11.1L490.2,104.6z M490.2,117.4
								h-11.1v-11h11.1L490.2,117.4z M490.2,130.2h-11.1v-11h11.1L490.2,130.2z M490.2,143h-11.1v-11h11.1L490.2,143z M490.2,155.8
								h-11.1v-11h11.1L490.2,155.8z M490.2,168.6h-11.1v-11h11.1L490.2,168.6z M476.5,2h-11.1V-9h11.1V2z M476.5,14.9h-11.1v-11
								h11.1V14.9z M476.5,27.7h-11.1v-11h11.1V27.7z M476.5,40.5h-11.1v-11h11.1V40.5z M476.5,53.3h-11.1v-11h11.1V53.3z
								 M476.5,66.1h-11.1v-11h11.1V66.1z M476.5,78.9h-11.1v-11h11.1V78.9z M476.5,91.7h-11.1v-11h11.1V91.7z M476.5,104.6h-11.1
								v-11h11.1V104.6z M476.5,117.4h-11.1v-11h11.1V117.4z M476.5,143h-11.1v-11h11.1V143z M476.5,155.8h-11.1v-11h11.1V155.8z
								 M476.5,168.6h-11.1v-11h11.1V168.6z M476.5,181.4h-11.1v-11h11.1V181.4z M462.8,2.1h-11.1V-9h11.1V2.1z M462.8,14.9h-11.1
								V3.8h11.1V14.9z M462.8,27.7h-11.1V16.6h11.1V27.7z M462.8,40.5h-11.1V29.4h11.1V40.5z M462.8,53.3h-11.1V42.3h11.1V53.3z
								 M462.8,78.9h-11.1v-11h11.1V78.9z M462.8,91.7h-11.1V80.7h11.1V91.7z M462.8,104.6h-11.1V93.5h11.1V104.6z M449.1,2.1H438
								V-9h11.1V2.1z M449.1,14.9H438v-11h11.1V14.9z M449.1,27.7H438v-11h11.1V27.7z M449.1,53.3H438v-11h11.1V53.3z M449.1,78.9
								H438v-11h11.1V78.9z M449.1,91.7H438V80.7h11.1V91.7z M449.1,104.6H438V93.5h11.1V104.6z M435.3,2.1h-11.1V-9h11.1V2.1z
								 M435.3,14.9h-11.1V3.8h11.1V14.9z M435.3,27.7h-11.1V16.6h11.1V27.7z M435.3,40.5h-11.1V29.4h11.1V40.5z M435.3,53.3h-11.1
								V42.3h11.1V53.3z M435.3,66.1h-11.1v-11h11.1V66.1z M435.3,78.9h-11.1v-11h11.1V78.9z M435.3,91.7h-11.1V80.7h11.1V91.7z
								 M435.3,104.6h-11.1V93.5h11.1V104.6z M435.3,117.4h-11.1v-11.1h11.1V117.4z M435.3,130.2h-11.1v-11.1h11.1V130.2z
								 M421.6,2.1h-11.1V-9h11.1V2.1z M421.6,14.9h-11.1v-11h11.1V14.9z M421.6,27.7h-11.1v-11h11.1V27.7z M421.6,40.5h-11.1v-11
								h11.1V40.5z M421.6,53.3h-11.1v-11h11.1V53.3z M421.6,66.1h-11.1v-11h11.1V66.1z M421.6,91.7h-11.1v-11h11.1V91.7z
								 M421.6,117.4h-11.1v-11h11.1V117.4z M421.6,130.2h-11.1v-11h11.1V130.2z M421.6,143h-11.1v-11h11.1V143z M421.6,155.8h-11.1
								v-11h11.1V155.8z M407.9,2h-11.1V-9h11.1V2z M407.9,14.9h-11.1v-11h11.1V14.9z M407.9,27.7h-11.1v-11h11.1V27.7z M407.9,40.5
								h-11.1v-11h11.1V40.5z M407.9,53.3h-11.1v-11h11.1V53.3z M407.9,66.1h-11.1v-11h11.1V66.1z M407.9,78.9h-11.1v-11h11.1V78.9z
								 M407.9,91.7h-11.1v-11h11.1V91.7z M394.1,2h-11.1V-9h11.1L394.1,2z M394.1,14.9h-11.1v-11h11.1L394.1,14.9z M394.1,27.7
								h-11.1v-11h11.1L394.1,27.7z M394.1,40.5h-11.1v-11h11.1L394.1,40.5z M394.1,53.3h-11.1v-11h11.1L394.1,53.3z M394.1,78.9
								h-11.1v-11h11.1L394.1,78.9z M394.1,91.7h-11.1v-11h11.1L394.1,91.7z M380.4,2h-11.1V-9h11.1V2z M380.4,14.9h-11.1v-11h11.1
								V14.9z M380.4,27.7h-11.1v-11h11.1V27.7z M380.4,40.5h-11.1v-11h11.1V40.5z M380.4,53.3h-11.1v-11h11.1V53.3z M380.4,66.1
								h-11.1v-11h11.1V66.1z M380.4,117.4h-11.1v-11h11.1V117.4z M366.7,2.1h-11.1V-9h11.1V2.1z M366.7,14.9h-11.1V3.8h11.1V14.9z
								 M366.7,27.7h-11.1V16.6h11.1V27.7z M366.7,40.5h-11.1V29.4h11.1V40.5z M366.7,66.1h-11.1v-11h11.1V66.1z M366.7,78.9h-11.1
								v-11h11.1V78.9z M366.7,91.7h-11.1V80.7h11.1V91.7z M366.7,117.4h-11.1v-11.1h11.1V117.4z M380.4,143h-11.1v-11.1h11.1V143z
								 M366.7,194.1h-11.1v-11.1h11.1V194.1z M353,2.1h-11.1V-9H353V2.1z M353,14.9h-11.1V3.8H353V14.9z M353,27.7h-11.1V16.6H353
								V27.7z M353,40.5h-11.1V29.4H353V40.5z M353,66.1h-11.1v-11H353V66.1z M353,78.9h-11.1v-11H353V78.9z M353,91.7h-11.1V80.7
								H353V91.7z M353,104.6h-11.1V93.5H353V104.6z M339.2,2.1h-11.1V-9h11.1V2.1z M339.2,14.9h-11.1v-11h11.1V14.9z M339.2,27.7
								h-11.1v-11h11.1V27.7z M339.2,40.5h-11.1v-11h11.1V40.5z M339.2,53.3h-11.1v-11h11.1V53.3z M339.2,66.1h-11.1v-11h11.1V66.1z
								 M339.2,78.9h-11.1v-11h11.1V78.9z M339.2,91.7h-11.1V80.7h11.1V91.7z M339.2,104.6h-11.1V93.5h11.1V104.6z M339.2,117.4
								h-11.1v-11.1h11.1V117.4z M325.5,2.1h-11.1V-9h11.1V2.1z M325.5,14.9h-11.1v-11h11.1V14.9z M325.5,27.7h-11.1v-11h11.1V27.7z
								 M325.5,40.5h-11.1v-11h11.1V40.5z M325.5,53.3h-11.1v-11h11.1V53.3z M325.5,130.2h-11.1v-11h11.1V130.2z M325.5,155.8h-11.1
								v-11h11.1V155.8z M325.5,66.1h-11.1v-11h11.1V66.1z M311.8,2h-11.1V-9h11.1V2z M311.8,14.9h-11.1v-11h11.1V14.9z M311.8,27.7
								h-11.1v-11h11.1V27.7z M311.8,40.5h-11.1v-11h11.1V40.5z M311.8,53.3h-11.1v-11h11.1V53.3z M311.8,66.1h-11.1v-11h11.1V66.1z
								 M311.8,78.9h-11.1v-11h11.1V78.9z M311.8,91.7h-11.1v-11h11.1V91.7z M311.8,104.6h-11.1v-11h11.1V104.6z M311.8,117.4h-11.1
								v-11h11.1V117.4z M298,2H287V-9H298L298,2z M298,14.9H287v-11H298L298,14.9z M298,27.7H287v-11H298L298,27.7z M298,40.5H287
								v-11H298L298,40.5z M298,53.3H287v-11H298L298,53.3z M298,66.1H287v-11H298L298,66.1z M298,78.9H287v-11H298L298,78.9z
								 M298,91.7H287v-11H298L298,91.7z M298,104.6H287v-11H298L298,104.6z M298,117.4H287v-11H298L298,117.4z M298,143H287v-11
								H298L298,143z M284.3,2h-11.1V-9h11.1V2z M284.3,14.9h-11.1v-11h11.1V14.9z M284.3,27.7h-11.1v-11h11.1V27.7z M284.3,66.1
								h-11.1v-11h11.1V66.1z M284.3,78.9h-11.1v-11h11.1V78.9z M284.3,91.7h-11.1v-11h11.1V91.7z M270.6,2.1h-11.1V-9h11.1V2.1z
								 M270.6,14.9h-11.1V3.8h11.1V14.9z M270.6,27.7h-11.1V16.6h11.1V27.7z M270.6,40.5h-11.1V29.4h11.1V40.5z M270.6,53.3h-11.1
								V42.3h11.1V53.3z M270.6,66.1h-11.1v-11h11.1V66.1z M270.6,78.9h-11.1v-11h11.1V78.9z M270.6,91.7h-11.1V80.7h11.1V91.7z
								 M256.9,2.1h-11.1V-9h11.1L256.9,2.1z M256.9,14.9h-11.1v-11h11.1L256.9,14.9z M256.9,27.7h-11.1v-11h11.1L256.9,27.7z
								 M256.9,40.5h-11.1v-11h11.1L256.9,40.5z M256.9,53.3h-11.1v-11h11.1L256.9,53.3z M256.9,78.9h-11.1v-11h11.1L256.9,78.9z
								 M256.9,91.7h-11.1V80.7h11.1L256.9,91.7z M243.1,2.1h-11.1V-9h11.1L243.1,2.1z M243.1,14.9h-11.1v-11h11.1L243.1,14.9z
								 M243.1,27.7h-11.1v-11h11.1L243.1,27.7z M243.1,40.5h-11.1v-11h11.1L243.1,40.5z M243.1,53.3h-11.1v-11h11.1L243.1,53.3z
								 M243.1,66.1h-11.1v-11h11.1L243.1,66.1z M243.1,78.9h-11.1v-11h11.1L243.1,78.9z M243.1,91.7h-11.1v-11h11.1L243.1,91.7z
								 M229.4,2h-11.1V-9h11.1L229.4,2z M229.4,14.9h-11.1v-11h11.1L229.4,14.9z M229.4,27.7h-11.1v-11h11.1L229.4,27.7z
								 M229.4,40.5h-11.1v-11h11.1L229.4,40.5z M229.4,53.3h-11.1v-11h11.1L229.4,53.3z M229.4,91.7h-11.1v-11h11.1L229.4,91.7z
								 M229.4,104.6h-11.1v-11h11.1L229.4,104.6z M229.4,117.4h-11.1v-11h11.1L229.4,117.4z M229.4,130.2h-11.1v-11h11.1
								L229.4,130.2z M215.7,2.1h-11.1V-9h11.1L215.7,2.1z M215.7,14.9h-11.1V3.8h11.1L215.7,14.9z M215.7,27.7h-11.1V16.6h11.1
								L215.7,27.7z M215.7,40.5h-11.1V29.4h11.1L215.7,40.5z M215.7,53.3h-11.1V42.3h11.1L215.7,53.3z M215.7,66.1h-11.1v-11h11.1
								L215.7,66.1z M215.7,104.6h-11.1V93.5h11.1L215.7,104.6z M215.7,117.4h-11.1v-11.1h11.1L215.7,117.4z M215.7,130.2h-11.1
								v-11.1h11.1L215.7,130.2z M215.7,143h-11.1v-11.1h11.1L215.7,143z M201.9,2.1h-11.1V-9h11.1L201.9,2.1z M201.9,14.9h-11.1
								V3.8h11.1L201.9,14.9z M201.9,27.7h-11.1V16.6h11.1L201.9,27.7z M201.9,40.5h-11.1V29.4h11.1L201.9,40.5z M201.9,53.3h-11.1
								V42.3h11.1L201.9,53.3z M201.9,66.1h-11.1v-11h11.1L201.9,66.1z M201.9,78.9h-11.1v-11h11.1L201.9,78.9z M218.3,183.2h11.1
								v11.1h-11L218.3,183.2z M201.9,117.4h-11.1v-11.1h11.1L201.9,117.4z M201.9,130.2h-11.1v-11.1h11.1L201.9,130.2z M188.2,2.1
								h-11.1V-9h11.1L188.2,2.1z M188.2,14.9h-11.1V3.8h11.1L188.2,14.9z M188.2,27.7h-11.1V16.6h11.1L188.2,27.7z M188.2,40.5
								h-11.1V29.4h11.1L188.2,40.5z M188.2,53.3h-11.1V42.3h11.1L188.2,53.3z M188.2,66.1h-11.1v-11h11.1L188.2,66.1z M188.2,78.9
								h-11.1v-11h11.1L188.2,78.9z M188.2,91.7h-11.1V80.7h11.1L188.2,91.7z M188.2,130.2h-11.1v-11.1h11.1L188.2,130.2z
								 M174.5,2.1h-11.1V-9h11.1V2.1z M174.5,14.9h-11.1V3.8h11.1V14.9z M174.5,27.7h-11.1V16.6h11.1V27.7z M174.5,40.5h-11.1V29.4
								h11.1V40.5z M174.5,78.9h-11.1V67.9h11.1V78.9z M174.5,91.7h-11.1V80.7h11.1V91.7z M174.5,104.6h-11.1V93.5h11.1V104.6z
								 M160.8,2.1h-11.1V-9h11.1L160.8,2.1z M160.8,14.9h-11.1V3.8h11.1L160.8,14.9z M160.8,27.7h-11.1V16.6h11.1L160.8,27.7z
								 M160.8,40.5h-11.1V29.4h11.1L160.8,40.5z M160.8,53.3h-11.1V42.3h11.1L160.8,53.3z M160.8,66.1h-11.1v-11h11.1L160.8,66.1z
								 M160.8,78.9h-11.1v-11h11.1L160.8,78.9z M160.8,91.7h-11.1V80.7h11.1L160.8,91.7z M160.8,104.6h-11.1V93.5h11.1L160.8,104.6
								z M160.8,117.4h-11.1v-11.1h11.1L160.8,117.4z M160.8,143h-11.1v-11.1h11.1L160.8,143z M160.8,155.8h-11.1v-11.1h11.1
								L160.8,155.8z M147,2.1H136V-9H147L147,2.1z M147,14.9H136v-11H147L147,14.9z M147,27.7H136v-11H147L147,27.7z M147,40.5H136
								v-11H147L147,40.5z M147,53.3H136v-11H147L147,53.3z M147,66.1H136v-11H147L147,66.1z M147,91.7H136v-11H147L147,91.7z
								 M147,104.6H136v-11H147L147,104.6z M147,117.4H136v-11H147L147,117.4z M147,130.2H136v-11H147L147,130.2z M147,143H136v-11
								H147L147,143z M133.3,2h-11.1V-9h11.1L133.3,2z M133.3,14.9h-11.1v-11h11.1L133.3,14.9z M133.3,27.7h-11.1v-11h11.1
								L133.3,27.7z M133.3,40.5h-11.1v-11h11.1L133.3,40.5z M133.3,53.3h-11.1v-11h11.1L133.3,53.3z M133.3,66.1h-11.1v-11h11.1
								L133.3,66.1z M133.3,78.9h-11.1v-11h11.1L133.3,78.9z M133.3,91.7h-11.1v-11h11.1L133.3,91.7z M133.3,117.4h-11.1v-11h11.1
								L133.3,117.4z M133.3,130.2h-11.1v-11h11.1L133.3,130.2z M133.3,143h-11.1v-11h11.1L133.3,143z M119.6,2.1h-11.1V-9h11.1V2.1
								z M119.6,14.9h-11.1V3.8h11.1V14.9z M119.6,27.7h-11.1V16.6h11.1V27.7z M119.6,40.5h-11.1V29.4h11.1V40.5z M119.6,78.9h-11.1
								V67.9h11.1V78.9z M119.6,91.7h-11.1V80.7h11.1V91.7z M119.6,194.3h-11.1v-11.1h11.1V194.3z M119.6,207.1h-11.1V196h11.1
								V207.1z M119.6,232.7h-11.1v-11.1h11.1V232.7z M119.6,104.6h-11.1V93.5h11.1V104.6z M119.6,155.8h-11.1v-11.1h11.1V155.8z
								 M119.6,168.6h-11.1v-11.1h11.1V168.6z M105.8,2.1H94.8V-9h11.1L105.8,2.1z M105.8,14.9H94.8V3.8h11.1L105.8,14.9z
								 M105.8,27.7H94.8V16.6h11.1L105.8,27.7z M105.8,40.5H94.8V29.4h11.1L105.8,40.5z M105.8,53.3H94.8V42.3h11.1L105.8,53.3z
								 M105.8,66.1H94.8v-11h11.1L105.8,66.1z M105.8,78.9H94.8v-11h11.1L105.8,78.9z M105.8,91.7H94.8V80.7h11.1L105.8,91.7z
								 M105.8,117.4H94.8v-11.1h11.1L105.8,117.4z M105.8,130.2H94.8v-11.1h11.1L105.8,130.2z M92.1,2.1H81.1V-9h11.1V2.1z
								 M92.1,14.9H81.1V3.8h11.1V14.9z M92.1,27.7H81.1V16.6h11.1V27.7z M92.1,40.5H81.1V29.4h11.1V40.5z M92.1,53.3H81.1V42.3
								h11.1V53.3z M92.1,66.1H81.1v-11h11.1V66.1z M92.1,104.6H81.1V93.5h11.1V104.6z M92.1,117.4H81.1v-11.1h11.1V117.4z
								 M92.1,130.2H81.1v-11.1h11.1V130.2z M78.4,2.1H67.3V-9h11.1V2.1z M78.4,14.9H67.3V3.8h11.1V14.9z M78.4,27.7H67.3V16.6h11.1
								V27.7z M78.4,104.6H67.3V93.5h11.1V104.6z M78.4,117.4H67.3v-11.1h11.1V117.4z M64.7,2.1H53.6V-9h11.1L64.7,2.1z M64.7,14.9
								H53.6V3.8h11.1L64.7,14.9z M64.7,27.7H53.6V16.6h11.1L64.7,27.7z M64.7,40.5H53.6V29.4h11.1L64.7,40.5z M64.7,53.3H53.6V42.3
								h11.1L64.7,53.3z M64.7,66.1H53.6v-11h11.1L64.7,66.1z M64.7,78.9H53.6v-11h11.1L64.7,78.9z M462.6,181.4h-11.1v-11.1h11.1
								V181.4z M462.6,194.3h-11.1v-11.1h11.1V194.3z M462.6,219.9h-11.1v-11.1h11.1V219.9z M410.5,183.2h11.1v11.1h-11.1V183.2z"/>
							<rect id="Rectangle_9121" x="409.2" y="182.3" class="st3" width="13.7" height="12.8"/>
						</g>
						<g id="Group_15693" transform="translate(409.205 205.012)">
							<rect id="Rectangle_9122" x="0" y="-9" class="st3" width="13.7" height="12.8"/>
							<rect id="Rectangle_9123" x="1.3" y="-8.1" class="st4" width="11.1" height="11.1"/>
						</g>
					</g>
				</g>
			</g>
		</g>
		<g id="Group_15696">
			<g id="s2_amex" transform="translate(-33.282 -36.02)">
				<path id="Path_3587" class="st3" d="M253.8,34.8H33.5v313.4h496.2V34.8H253.8z"/>
				<path id="Path_3588" class="st3" d="M253.8,34.8H33.5v313.4h496.2V34.8H253.8z"/>
				<path id="Path_3589" class="st3" d="M253.8,34.8H33.5v313.4h496.2V34.8H253.8z"/>
				<path id="Path_3590" class="st3" d="M253.3,34.8H33.5v312.8h495.2V34.8H253.3z"/>
			</g>
		</g>
		<g id="Group_10065" transform="translate(51 97)">
			
				<linearGradient id="Path_3450_1_" gradientUnits="userSpaceOnUse" x1="-751.545" y1="592.4074" x2="-750.545" y2="592.4074" gradientTransform="matrix(68.0055 0 0 -54 51109.1836 32017)">
				<stop  offset="0" style="stop-color:#E9E9E9"/>
				<stop  offset="1" style="stop-color:#BFBEC1"/>
			</linearGradient>
			<path id="Path_3450" class="st7" d="M59.5,0h-51C3.7,0.2-0.1,4.2,0,9v36c-0.1,4.8,3.7,8.8,8.5,9h51c4.8-0.2,8.6-4.2,8.5-9V9
				C68.1,4.2,64.3,0.2,59.5,0z"/>
			<path id="Path_3449" class="st8" d="M59.5,0h-51C3.7,0.2-0.1,4.2,0,9v36c-0.1,4.8,3.7,8.8,8.5,9h51c4.8-0.2,8.6-4.2,8.5-9V9
				C68.1,4.2,64.3,0.2,59.5,0z M1.1,9C1,4.8,4.3,1.3,8.5,1.1h18.1L31,9.3c1,1.9,1,4.3,0,6.2c-1,1.9-2.9,3.1-5.1,3.1H1.1L1.1,9z
				 M1.1,19.7h24.2v14.6H1.1L1.1,19.7z M8.5,52.9c-4.2-0.1-7.6-3.6-7.4-7.9v-9.6H26c2.1,0,4.1,1.2,5.1,3.1c1,1.9,1,4.3,0,6.2
				l-4.4,8.2H8.5z M66.9,45c0.1,4.2-3.2,7.7-7.4,7.9H41.4L37,44.7c-1-1.9-1-4.3,0-6.2c1-1.9,2.9-3.1,5.1-3.1h24.9L66.9,45z
				 M66.9,34.3H42.5V19.7h24.4V34.3z M66.9,18.6H41.5v15.8c-2.3,0.2-4.3,1.6-5.4,3.6c-1.2,2.3-1.2,5,0,7.3l4.1,7.6H27.8l4.1-7.6
				c1.2-2.3,1.2-5,0-7.3c-1.1-2.1-3.3-3.5-5.6-3.6V19.7c2.4-0.2,4.5-1.5,5.6-3.6c1.2-2.3,1.2-5,0-7.3l-4.1-7.6h12.4l-4.1,7.6
				c-1.2,2.3-1.2,5,0,7.3l0.9-0.6c-1-1.9-1-4.3,0-6.2l4.4-8.2h18.1c4.2,0.1,7.6,3.6,7.4,7.9V18.6z"/>
		</g>
		<g id="Group_10248" transform="translate(128.461 86.4)">
			<path id="Path_3575" class="st9" d="M53.1,29.8c-1-0.9-2.2-1.6-3.5-2.1c-2.8-1-5.9-1-8.7,0c-1.3,0.5-2.5,1.2-3.5,2.1
				c-1,0.9-1.8,2-2.3,3.2c-0.6,1.4-0.9,2.8-0.8,4.3c0,1.5,0.3,3,0.8,4.3c0.5,1.3,1.3,2.4,2.3,3.3c1,0.9,2.2,1.7,3.5,2.1
				c2.8,1,5.9,1,8.7,0c1.3-0.5,2.5-1.2,3.5-2.1c1-0.9,1.8-2.1,2.3-3.3c0.6-1.4,0.9-2.8,0.8-4.3c0-1.5-0.3-2.9-0.8-4.3
				C54.9,31.8,54.1,30.7,53.1,29.8z M49.4,41.5h-8.2v-8.2h8.2L49.4,41.5z"/>
			<path id="Path_3576" class="st9" d="M20.3,38.3l-3.8-10.7H8v19.7h6.2l-0.3-11.1h0.1l3.6,11.1h4.7L26,36.2l0.2,0L26,47.3h6.5V27.6
				h-9L20.3,38.3z"/>
			<path id="Path_3577" class="st9" d="M82.1,39.9h7.7v-5.2h-7.7v-1.7h8.2v-5.5H76.7v19.7h14v-5.5h-8.7V39.9z"/>
			<path id="Path_3578" class="st9" d="M73.7,37.2c0.6-1,0.9-2.1,0.9-3.2c0-1.1-0.2-2.1-0.7-3.1c-0.4-0.8-1.1-1.5-1.8-2
				c-0.8-0.5-1.7-0.9-2.6-1c-0.9-0.2-1.9-0.3-2.9-0.3h-8.5v19.7h6.4v-7h0.2l3.8,7h7.6l-5-8C72.2,38.8,73.1,38.1,73.7,37.2z
				 M67.9,35.1c-0.2,0.2-0.4,0.4-0.6,0.5c-0.2,0.1-0.5,0.2-0.7,0.2c-0.2,0-0.5,0.1-0.7,0.1h-1.3v-3.2h1.6c0.2,0,0.4,0,0.7,0
				c0.2,0,0.5,0.1,0.7,0.2c0.2,0.1,0.4,0.3,0.5,0.5c0.1,0.3,0.2,0.5,0.2,0.8C68.2,34.5,68.1,34.8,67.9,35.1L67.9,35.1z"/>
			<g id="Group_10246" transform="translate(100.076 27.232)">
				<path id="Path_3579" class="st9" d="M14.3,6.2c0-3.8-2.2-5.9-6.5-5.9H0V20h2v-8.1h6.1l4.3,8.1h2.2l-4.4-8.3
					C12.9,11.1,14.3,9.3,14.3,6.2z M12.4,6.2c0,2.7-1.3,3.9-4.4,3.9H2v-8h6C11,2.1,12.4,3.4,12.4,6.2z"/>
				<path id="Path_3580" class="st9" d="M17.2,20h12.7v-1.8H19.1v-7.5h10V8.9h-10V2.1h10.7V0.3H17.2V20z"/>
				<path id="Path_3581" class="st9" d="M54.7,0.3l-4.8,16.7L45,0.3h-2L38.1,17L33.4,0.3h-2L37.1,20h2L44,3.4L48.9,20h2l5.7-19.7
					L54.7,0.3z"/>
				<path id="Path_3582" class="st9" d="M62.6,0.3L54.5,20h2.1l2.7-6.5h8.6l2.7,6.5h2.1L64.6,0.3L62.6,0.3z M67.2,11.6H60l3.5-8.7
					L67.2,11.6z"/>
				<path id="Path_3583" class="st9" d="M88.6,6.2c0-3.8-2.2-5.9-6.5-5.9h-7.8V20h2v-8.1h6.1l4.3,8.1h2.2l-4.4-8.3
					C87.2,11.1,88.6,9.3,88.6,6.2z M86.7,6.2c0,2.7-1.3,3.9-4.4,3.9h-6v-8h6C85.3,2.1,86.7,3.4,86.7,6.2z"/>
				<path id="Path_3584" class="st9" d="M98.3,0.3h-6.8V20h6.8c5.4,0,9-3.9,9-9.7v-0.2C107.2,4.2,103.6,0.3,98.3,0.3z M105.3,10v0.3
					c0,4.7-2.8,7.9-7.1,7.9h-4.8V2.1h4.8C102.5,2.1,105.3,5.3,105.3,10z"/>
				<path id="Path_3585" class="st9" d="M117.1,9.1c-4.7-1-5.8-1.6-5.8-3.5c0-2.2,2.1-3.8,5.2-3.8c2.2-0.1,4.3,0.8,5.9,2.4l0.2,0.2
					l1.3-1.4l-0.2-0.2c-1.9-1.9-4.5-2.9-7.2-2.8c-4.1,0-7.1,2.4-7.1,5.6c0,2.9,1.7,4.2,7.1,5.4c4.9,1,5.8,1.8,5.8,3.8
					c0,2.2-2.2,3.8-5.3,3.8c-2.7,0-5.2-1.1-6.9-3.2l-0.2-0.2l-1.3,1.4l0.1,0.2c2,2.4,5,3.8,8.2,3.7c4.2,0,7.2-2.4,7.2-5.7
					C124.3,11.6,122.5,10.2,117.1,9.1z"/>
			</g>
		</g>
		<g id="layer1" transform="translate(399.063 216.369)">
			<path id="path3078" class="st10" d="M0,0h79.7v43l-3.9,6.2l3.9,5.5v25H0V39.1l2.5-2.8L0,33.6V0z"/>
			<path id="path3082" class="st11" d="M15.5,55.5V43h13.2l1.4,1.9l1.5-1.9h48.1v11.6c-0.8,0.5-1.7,0.8-2.7,0.9H50.4l-1.6-2v2h-5.3
				v-3.4c-0.7,0.4-1.5,0.5-2.3,0.5h-1.8v2.9h-7.9l-1.4-1.9l-1.4,1.9H15.5z"/>
			<path id="path3080" class="st11" d="M0,33.6l3-7h5.2l1.7,3.9v-3.9h6.4l1,2.8l1-2.8h28.8V28c1.1-0.9,2.5-1.4,4-1.4l9.4,0l1.7,3.9
				v-3.9h5.4l1.5,2.2v-2.2h5.4v12.5H69l-1.4-2.2v2.2h-7.9l-0.8-2h-2.1l-0.8,2h-5.4c-1.3,0-2.6-0.5-3.5-1.4v1.4H39l-1.6-2v2h-30
				l-0.8-2H4.5l-0.8,2H0V33.6z"/>
			<path id="path3046" class="st10" d="M4,28.2l-4,9.4h2.6l0.7-1.9h4.3l0.7,1.9h2.7l-4-9.4L4,28.2z M5.5,30.3l1.3,3.3H4.2L5.5,30.3z
				"/>
			<path id="path3048" class="st10" d="M11.4,37.5v-9.4l3.7,0l2.2,6l2.1-6.1h3.7v9.4h-2.3v-6.9l-2.5,6.9h-2.1l-2.5-6.9v6.9
				L11.4,37.5z"/>
			<path id="path3050" class="st10" d="M24.7,37.5v-9.4h7.6v2.1h-5.3v1.6h5.2v2h-5.2v1.7h5.3v2L24.7,37.5z"/>
			<path id="path3052" class="st10" d="M33.7,28.2v9.4h2.3v-3.3h1l2.8,3.3h2.9l-3.1-3.5c1.5-0.1,2.6-1.4,2.6-2.9c0-1.7-1.3-3-3-3
				c-0.1,0-0.2,0-0.3,0L33.7,28.2z M36.1,30.3h2.7c0.6,0,1.1,0.4,1.1,1c0,0.6-0.5,1-1.1,1h-2.7L36.1,30.3L36.1,30.3z"/>
			<path id="path3054" class="st10" d="M45.5,37.5h-2.4v-9.4h2.4V37.5z"/>
			<path id="path3056" class="st10" d="M51.2,37.5h-0.5c-2.5,0-4-2-4-4.6c0-2.7,1.5-4.7,4.7-4.7h2.6v2.2h-2.7
				c-1.2,0-2.2,1.1-2.2,2.3c0,0.1,0,0.1,0,0.2c-0.2,1.3,0.7,2.4,2,2.6c0.2,0,0.4,0,0.6,0h0.6L51.2,37.5z"/>
			<path id="path3058" class="st10" d="M56.3,28.2l-4,9.4h2.6l0.7-1.9H60l0.7,1.9h2.7l-4-9.4H56.3z M57.8,30.3l1.3,3.3h-2.6
				L57.8,30.3z"/>
			<path id="path3060" class="st10" d="M63.7,37.5v-9.4h3l3.8,5.9v-5.9h2.3v9.4h-2.9l-3.9-6v6H63.7z"/>
			<path id="path3062" class="st10" d="M17.1,53.9v-9.4h7.6v2.1h-5.3v1.6h5.2v2h-5.2v1.7h5.3v2L17.1,53.9z"/>
			<path id="path3064" class="st10" d="M54.5,53.9v-9.4h7.6v2.1h-5.3v1.6H62v2h-5.1v1.7h5.3v2L54.5,53.9z"/>
			<path id="path3066" class="st10" d="M25,53.9l3.7-4.6l-3.8-4.7h3l2.3,2.9l2.3-2.9h2.8l-3.8,4.7l3.7,4.7h-3L30.1,51l-2.1,2.9
				L25,53.9z"/>
			<path id="path3068" class="st10" d="M35.5,44.6v9.4h2.4v-3h2.5c2.1,0,3.7-1.1,3.7-3.3c0-1.7-1.3-3.1-3-3.2c-0.1,0-0.2,0-0.4,0
				H35.5L35.5,44.6z M37.9,46.7h2.6c0.6-0.1,1.1,0.4,1.2,1c0,0,0,0.1,0,0.1c0,0.6-0.5,1.1-1.1,1.1c0,0-0.1,0-0.1,0h-2.6L37.9,46.7
				L37.9,46.7z"/>
			<path id="path3072" class="st10" d="M45.1,44.6v9.4h2.3v-3.3h1l2.8,3.3H54L51,50.5c1.5-0.1,2.6-1.4,2.6-2.9c0-1.7-1.3-3-3-3
				c-0.1,0-0.2,0-0.3,0L45.1,44.6z M47.4,46.7h2.7c0.6,0,1.1,0.4,1.1,1c0,0.6-0.5,1-1.1,1h-2.7V46.7z"/>
			<path id="path3074" class="st10" d="M63.2,53.9v-2h4.7c0.7,0,1-0.4,1-0.8c0-0.4-0.3-0.8-1-0.8h-2.1c-1.4,0.1-2.7-0.9-2.9-2.4
				c0-0.2,0-0.3,0-0.5c0-1.5,0.9-3,3.7-3h4.6l-1,2.1h-3.9c-0.8,0-1,0.4-1,0.8c0,0.5,0.4,0.8,0.8,0.8c0,0,0,0,0,0h2.2
				c2.1,0,2.9,1.2,2.9,2.7c0.1,1.5-1.1,2.9-2.6,3c-0.1,0-0.3,0-0.4,0L63.2,53.9z"/>
			<path id="path3076" class="st10" d="M71.8,53.9v-2h4.7c0.7,0,1-0.4,1-0.8c0-0.4-0.3-0.8-1-0.8h-2.1c-1.4,0.1-2.7-0.9-2.9-2.4
				c0-0.2,0-0.3,0-0.5c0-1.5,0.9-3,3.7-3h4.6l-1,2.1h-3.9c-0.8,0-1,0.4-1,0.8c0,0.5,0.4,0.8,0.8,0.8c0,0,0,0,0,0h2.2
				c2.1,0,2.9,1.2,2.9,2.7c0.1,1.5-1.1,2.9-2.6,3c-0.1,0-0.3,0-0.4,0L71.8,53.9z"/>
		</g>
		<g id="Group_16403" transform="translate(384.277 19.34)">
			<path id="Path_171" class="st11" d="M8.9,48.6c-0.4-1.6-1.2-2.7-3-2.7c-2.7,0-3.7,2.5-3.7,5s1.1,5,3.7,5c2,0,3-1.6,3.2-3.6h2.1
				c-0.2,3.2-2.3,5.3-5.3,5.3c-3.7,0-5.9-3.2-5.9-6.9s2.3-6.9,5.9-6.9c2.8,0,5,1.6,5.3,4.4H8.9V48.6z"/>
			<path id="Path_172" class="st11" d="M12.5,48.1h1.8v1.8l0,0c0.3-1.2,1.4-2.1,2.7-2.1h0.7v2.1c-0.4,0-0.5-0.2-0.9-0.2
				c-1.4,0-2.5,1.2-2.5,3.2v4.6h-2v-9.4H12.5z"/>
			<path id="Path_173" class="st11" d="M24.2,52c0.1-1.3-0.9-2.4-2.1-2.5c-1.3-0.1-2.4,0.9-2.5,2.1c0,0.1,0,0.2,0,0.3H24.2z
				 M19.6,53.4c0,1.4,0.7,2.8,2.5,2.8c1,0,1.9-0.6,2.1-1.6h2c-0.3,2-2.1,3.3-4.1,3.2c-2.8,0-4.4-2.1-4.4-5c0-2.7,1.6-5.2,4.3-5.2
				c2.8,0,4.6,2.7,4.3,5.7L19.6,53.4L19.6,53.4z"/>
			<path id="Path_174" class="st11" d="M31.3,56.2c1.8,0,2.5-1.8,2.5-3.4c0-2.1-0.9-3.4-2.5-3.4c-1.8,0-2.5,1.8-2.5,3.6
				C28.8,54.6,29.5,56.2,31.3,56.2L31.3,56.2z M35.8,57.7h-2v-1.2l0,0c-0.6,1-1.7,1.7-2.8,1.6c-2.8,0-4.3-2.3-4.3-5.2
				c0-3.6,2-5,3.9-5c1.2,0,2.3,0.5,3,1.4l0,0v-5h2v13.3L35.8,57.7z"/>
			<path id="Path_175" class="st11" d="M37.6,48.1h2v9.6h-2V48.1z M37.6,44.3h2v2h-2V44.3z"/>
			<path id="Path_176" class="st11" d="M40.4,48.1h1.4v-2.8h2v2.8h1.8v1.6h-1.8v5.2c0,0.9,0,1.2,0.9,1.2h0.9v1.6
				c-0.4,0-0.9,0.2-1.2,0.2c-2.1,0-2.5-0.9-2.5-2.5v-5.7h-1.4V48.1L40.4,48.1z"/>
			<path id="Path_177" class="st11" d="M50.7,44.3h2.1V52c0,1.8,0.2,3.9,2.8,3.9c2.8,0,2.8-2.1,2.8-3.9v-7.7h2.1v8.5
				c0,3.4-2,5.2-5.2,5.2c-3,0-5.2-1.8-5.2-5.2v-8.5H50.7z"/>
			<path id="Path_178" class="st11" d="M62.5,48.1h2v1.4l0,0c0.5-1.1,1.6-1.8,2.8-1.8c1.6-0.2,3,1,3.2,2.6c0,0.2,0,0.4,0,0.6v6.6h-2
				v-5.9c0-1.4-0.5-2.1-1.8-2.1c-1.2,0.1-2.2,1.1-2.1,2.4c0,0,0,0.1,0,0.1v5.7h-2v-9.6H62.5z"/>
			<path id="Path_179" class="st11" d="M72.1,48.1h2v9.6h-2V48.1z M72.1,44.3h2v2h-2V44.3z"/>
			<path id="Path_180" class="st11" d="M82.4,52.9c0-1.6-0.7-3.4-2.5-3.4s-2.5,1.8-2.5,3.4s0.7,3.4,2.5,3.4
				C81.5,56.2,82.4,54.5,82.4,52.9z M75.3,52.9c0-3,1.6-5,4.6-5c2.8,0,4.6,2.1,4.6,5c0,3-1.6,5.2-4.6,5.2
				C76.9,57.8,75.3,55.7,75.3,52.9z"/>
			<path id="Path_181" class="st11" d="M85.4,48.1h2v1.4l0,0c0.5-1.1,1.6-1.8,2.8-1.8c1.6-0.2,3,1,3.2,2.6c0,0.2,0,0.4,0,0.6v6.6h-2
				v-5.9c0-1.4-0.5-2.1-1.8-2.1c-1.2,0.1-2.2,1.1-2.1,2.4c0,0,0,0.1,0,0.1v5.7h-2v-9.6H85.4z"/>
			<path id="Path_182" class="st11" d="M0.2,19.8h10.5v3H4.3v3.7h5.9v3H4.3v5.9H0.2V19.8z"/>
			<path id="Path_183" class="st11" d="M11.7,19.8h11v3h-6.9V26h6.6v3h-6.6v3.4H23v3H11.7V19.8z"/>
			<path id="Path_184" class="st11" d="M28.5,32.4h1.8c2.7,0,4.4-1.2,4.4-5c0-4.8-3.4-4.8-4.6-4.8h-1.6L28.5,32.4L28.5,32.4z
				 M24.2,19.8h6.2c1.8,0,4.1,0.2,5.7,1.2c1.9,1.6,3,4.1,2.8,6.6c0,3.6-1.1,6.1-4.1,7.3c-1.4,0.4-2.8,0.6-4.3,0.5h-6.2V19.8H24.2z"
				/>
			<path id="Path_185" class="st11" d="M39.9,19.8h11v3H44V26h6.6v3H44v3.4h7.1v3H39.9V19.8z"/>
			<path id="Path_186" class="st11" d="M56.4,26.5H58c0.6,0.1,1.2,0,1.8-0.2c0.7-0.3,1.1-1,1.1-1.8c0-2-1.6-2-2.8-2h-1.6V26.5
				L56.4,26.5z M52.1,19.8h6.8c2.7,0,3.7,0.2,4.6,1.1c0.8,0.8,1.1,1.9,1.1,3c0,1.8-0.7,2.5-1.4,2.8c-0.7,0.5-1.5,0.8-2.3,0.9l0,0
				c2.8,0,3,1.4,3.4,3.9c0.2,1.3,0.4,2.6,0.7,3.9h-4.4c-0.2-0.9-0.4-2.1-0.5-3.6c-0.2-2-0.2-2.7-2.1-2.7h-1.8v6.2H52V19.8H52.1z"/>
			<path id="Path_187" class="st11" d="M75.5,29.4l-2-6.6l0,0l-2.1,6.6H75.5z M71.2,19.8h5L82,35.6h-4.6l-1.1-3.2h-5.9l-1.1,3.2
				h-4.1C65.3,35.6,71.2,19.8,71.2,19.8z"/>
			<path id="Path_188" class="st11" d="M82.4,19.8h4.3v12.6h6.6v3H82.4V19.8z"/>
			<path id="Path_189" class="st11" d="M0.2,2.1h5.7l5,11.7V2.1h3.6V18H8.9L3.7,5.7V18H0.2V2.1z"/>
			<path id="Path_190" class="st11" d="M25.6,11.9l-2-6.6l0,0l-2.1,6.6L25.6,11.9z M21.4,2.1h5L32.2,18h-4.6l-1.1-3.2h-5.9L19.6,18
				h-4.1L21.4,2.1z"/>
			<path id="Path_191" class="st11" d="M29,2.1h4.6L37,13.7l3.6-11.6h3.9L39.2,18h-4.8L29,2.1z"/>
			<path id="Path_192" class="st11" d="M49.1,2.1l3.2,6.8l3.4-6.8H60l-5.9,10.3V18H50v-5.7L44.5,2.1H49.1z"/>
			<path id="Path_193" class="st11" d="M93.3,41.5v-4.1H0.2v4.1H93.3z"/>
			<path id="Path_194" class="st11" d="M78.8,16h-0.4c0.7-0.7,1.2-1.6,1.6-2.5H81C80.5,14.5,79.7,15.4,78.8,16L78.8,16z M66,13.5
				h0.9c0.4,0.9,0.9,1.8,1.6,2.5h-0.2C67.5,15.3,66.7,14.4,66,13.5L66,13.5z M68.3,2.5h0.4c-0.5,0.5-0.9,1.1-1.2,1.8l0,0l-0.2,0.2
				l-0.2,0.2l0,0v0.2h-0.9c0.2-0.2,0.4-0.5,0.5-0.7C67.2,3.5,67.7,2.9,68.3,2.5L68.3,2.5z M81.2,5h-0.9c-0.4-0.9-0.9-1.8-1.6-2.5H79
				C79.8,3.2,80.5,4.1,81.2,5L81.2,5z M81,9.6h1.2c0,1.2-0.3,2.3-0.9,3.4h-1.1C80.8,11.9,81,10.8,81,9.6z M77.6,13
				c0.2-1.1,0.3-2.2,0.4-3.4h2.5c0,1.2-0.2,2.3-0.7,3.4H77.6z M76.2,16.7h0.9c-0.5,0.4-1,0.7-1.6,0.9C75.8,17.3,76,16.9,76.2,16.7
				L76.2,16.7z M71,16.7c0.2,0.3,0.4,0.6,0.7,0.9c-0.6-0.2-1.1-0.5-1.6-0.9H71z M66.7,9.6h2.5c0,1.1,0.1,2.3,0.4,3.4h-2.3
				C67,11.9,66.8,10.8,66.7,9.6z M66.2,8.9H65c0-1.2,0.3-2.3,0.9-3.4h1.1C66.4,6.6,66.2,7.7,66.2,8.9z M69.6,5.5
				c-0.2,1.1-0.3,2.2-0.4,3.4h-2.5c0-1.2,0.2-2.3,0.7-3.4H69.6z M76.2,2c-0.2-0.3-0.4-0.6-0.7-0.9C76,1.3,76.6,1.6,77.1,2H76.2z
				 M73.9,8.9V5.5h3c0.2,1.1,0.3,2.2,0.4,3.4L73.9,8.9z M73.9,13V9.6h3.4c0,1.1-0.1,2.3-0.4,3.4L73.9,13z M73.9,16v-2.5h2.8
				c-0.2,0.9-0.5,1.7-0.9,2.5L73.9,16z M73.9,16.7h1.6c-0.4,0.6-0.9,1-1.6,1.2V16.7L73.9,16.7z M73.3,16.7v1.1
				c-0.7-0.2-1.2-0.7-1.6-1.2h1.6V16.7z M73.3,13.5V16h-2c-0.4-0.8-0.7-1.6-0.9-2.5H73.3z M73.3,9.6V13h-3c-0.2-1.1-0.3-2.2-0.4-3.4
				H73.3z M73.3,5.5v3.4h-3.4c0-1.1,0.1-2.3,0.4-3.4L73.3,5.5z M75.8,2.5c0.4,0.8,0.7,1.6,0.9,2.5h-2.8V2.5L75.8,2.5z M73.9,2V0.7
				c0.7,0.2,1.2,0.7,1.6,1.2L73.9,2z M73.3,0.7V2h-1.6C72.3,1.3,72.8,0.7,73.3,0.7z M71,2h-0.9c0.5-0.4,1-0.7,1.6-0.9
				C71.4,1.3,71.2,1.6,71,2L71,2z M70.5,4.8c0.2-0.8,0.5-1.6,0.9-2.3h2V5h-3C70.4,5,70.5,4.9,70.5,4.8C70.5,4.8,70.5,4.8,70.5,4.8
				L70.5,4.8z M80.4,8.9h-2.5c0-1.1-0.1-2.3-0.4-3.4h2.3C80.3,6.6,80.4,7.8,80.4,8.9L80.4,8.9z M82.2,8.9H81c0-1.1-0.2-2.3-0.5-3.4
				h1.1C81.9,6.6,82.2,7.7,82.2,8.9z M79.6,5h-2.1c-0.2-0.9-0.5-1.7-0.9-2.5h1.2C78.5,3.2,79.1,4.1,79.6,5L79.6,5z M67.8,4.8
				c0.4-0.9,0.9-1.6,1.6-2.3h1.2c-0.3,0.6-0.6,1.3-0.7,2l0,0v0.7h-2.1C67.6,5,67.6,4.8,67.8,4.8L67.8,4.8z M65,9.6h1.2
				c0,1.1,0.2,2.3,0.5,3.4h-1.1C65.3,11.9,65,10.8,65,9.6z M67.6,13.5h2.1c0.2,0.9,0.5,1.7,0.9,2.5h-1.2
				C68.7,15.3,68.1,14.4,67.6,13.5z M77.8,16h-1.2c0.4-0.8,0.7-1.6,0.9-2.5h2.1C79.1,14.5,78.5,15.3,77.8,16L77.8,16z M82.8,9.3
				c-0.1-4.8-3.6-8.7-8.4-9.3h-1.6c-2.6,0.3-4.9,1.5-6.6,3.6l0,0L66,3.7l-0.2,0.2l0,0c-1.1,1.5-1.6,3.3-1.6,5.2
				c0.1,4.8,3.6,8.7,8.4,9.3h1.8C79.1,18,82.8,14,82.8,9.3L82.8,9.3z"/>
			<path id="Path_195" class="st11" d="M96.1,39.3h0.4c0.4,0,0.5-0.2,0.5-0.4s-0.2-0.4-0.5-0.4h-0.4C96.1,38.6,96.1,39.3,96.1,39.3z
				 M96.1,40.6h-0.4v-2.5h0.7c0.4,0,0.7,0,0.7,0.2c0.1,0.1,0.2,0.3,0.2,0.5c0,0.3-0.1,0.5-0.4,0.5c0,0-0.1,0-0.1,0l0,0
				c0.2,0,0.4,0.2,0.4,0.5c0,0.2,0.1,0.4,0.2,0.5H97c-0.1-0.2-0.2-0.5-0.2-0.7c0-0.4-0.2-0.4-0.5-0.4h-0.4v1.2L96.1,40.6z
				 M96.6,37.4c-1,0-1.8,0.9-1.8,1.9c0,0,0,0.1,0,0.1c0,1,0.8,1.9,1.8,2c1,0,1.8-0.9,1.8-1.9c0,0,0-0.1,0-0.1
				C98.4,38.3,97.6,37.5,96.6,37.4z M96.6,37.2c1.3-0.1,2.4,0.9,2.5,2.1s-0.9,2.4-2.1,2.5s-2.4-0.9-2.5-2.1c0-0.1,0-0.1,0-0.2
				c-0.2-1.1,0.6-2.1,1.7-2.3C96.3,37.2,96.5,37.2,96.6,37.2z"/>
		</g>
	</g>
</g>
</svg>
