<?xml version="1.0" encoding="utf-8"?>
<!-- Generator: Adobe Illustrator 22.0.1, SVG Export Plug-In . SVG Version: 6.00 Build 0)  -->
<svg version="1.1" id="Layer_1" xmlns="http://www.w3.org/2000/svg" xmlns:xlink="http://www.w3.org/1999/xlink" x="0px" y="0px"
	 viewBox="0 0 161.6 101.6" style="enable-background:new 0 0 161.6 101.6;" xml:space="preserve">
<style type="text/css">
	.st0{fill:#EFF0F4;}
	.st1{fill:#AAAAAA;}
	.st2{fill:none;stroke:#A5A5A5;stroke-width:1.25;stroke-miterlimit:10;stroke-dasharray:7;}
</style>
<g id="Group_7258" transform="translate(-776 -1080.488)">
	<g id="Group_7257">
		<path id="Rectangle_1344" class="st0" d="M784.9,1081.3h144.9c3.8,0,6.9,3.1,6.9,6.9v86c0,3.8-3.1,6.9-6.9,6.9H784.9
			c-3.8,0-6.9-3.1-6.9-6.9v-86C778,1084.4,781.1,1081.3,784.9,1081.3z"/>
		<rect id="Rectangle_1345" x="778" y="1099.7" class="st1" width="158.7" height="15.1"/>
	</g>
</g>
<path id="Rectangle_1344_1_" class="st2" d="M8.9,0.9h144.9c3.8,0,6.9,3.1,6.9,6.9v86c0,3.8-3.1,6.9-6.9,6.9H8.9
	c-3.8,0-6.9-3.1-6.9-6.9v-86C2,3.9,5.1,0.9,8.9,0.9z"/>
</svg>
